<?xml version="1.0" encoding="UTF-8"?>
<!DOCTYPE svg PUBLIC "-//W3C//DTD SVG 1.1//EN" "http://www.w3.org/Graphics/SVG/1.1/DTD/svg11.dtd">
<svg xmlns="http://www.w3.org/2000/svg" version="1.1" width="256px" height="256px" style="shape-rendering:geometricPrecision; text-rendering:geometricPrecision; image-rendering:optimizeQuality; fill-rule:evenodd; clip-rule:evenodd" xmlns:xlink="http://www.w3.org/1999/xlink">
<g><path style="opacity:0.989" fill="#bfccf2" d="M 218.5,133.5 C 202.371,106.273 178.371,94.7729 146.5,99C 124.186,104.816 108.519,118.316 99.5,139.5C 86.8289,139.333 74.1623,139.5 61.5,140C 56.8742,147.417 52.3742,154.917 48,162.5C 40,148.5 32,134.5 24,120.5C 3.20926,96.4769 -0.124069,70.1436 14,41.5C 25.6581,23.5771 42.1581,13.0771 63.5,10C 107.5,9.33333 151.5,9.33333 195.5,10C 236.426,19.6629 254.926,45.4963 251,87.5C 246.656,106.503 236.156,121.003 219.5,131C 218.748,131.671 218.414,132.504 218.5,133.5 Z"/></g>
<g><path style="opacity:1" fill="#fafbfe" d="M 20.5,57.5 C 24.6372,57.1463 28.6372,57.6463 32.5,59C 35.0244,60.883 36.3577,63.383 36.5,66.5C 34.5,66.5 32.5,66.5 30.5,66.5C 30.8633,64.0885 29.8633,62.5885 27.5,62C 21.591,61.2417 18.9244,63.9083 19.5,70C 18.9425,74.738 20.9425,77.5713 25.5,78.5C 27.7414,77.9292 29.4081,76.5958 30.5,74.5C 32.396,73.5344 34.396,73.2011 36.5,73.5C 35.9468,77.7605 33.6135,80.5939 29.5,82C 19.363,84.0329 14.0296,79.8662 13.5,69.5C 13.7999,64.2234 16.1332,60.2234 20.5,57.5 Z"/></g>
<g><path style="opacity:1" fill="#fbfbfe" d="M 46.5,57.5 C 59.2672,56.1006 64.7672,61.7673 63,74.5C 59.8796,81.974 54.3796,84.474 46.5,82C 40.333,78.1548 38.1663,72.6548 40,65.5C 41.3046,62.0386 43.4713,59.372 46.5,57.5 Z"/></g>
<g><path style="opacity:1" fill="#fdfdfe" d="M 67.5,57.5 C 69.1992,57.3398 70.8659,57.5065 72.5,58C 76.0285,62.6958 79.3618,67.5291 82.5,72.5C 83.4941,67.544 83.8275,62.544 83.5,57.5C 85.1667,57.5 86.8333,57.5 88.5,57.5C 88.5,65.8333 88.5,74.1667 88.5,82.5C 86.8008,82.6602 85.1341,82.4935 83.5,82C 80,77.1667 76.5,72.3333 73,67.5C 72.5007,72.4889 72.3341,77.4889 72.5,82.5C 70.8333,82.5 69.1667,82.5 67.5,82.5C 67.5,74.1667 67.5,65.8333 67.5,57.5 Z"/></g>
<g><path style="opacity:1" fill="#fcfcfe" d="M 91.5,58.5 C 93.5598,57.1888 95.7265,57.1888 98,58.5C 99.5295,63.9583 101.363,69.2917 103.5,74.5C 105.694,69.2538 107.694,63.9204 109.5,58.5C 111.421,57.359 113.421,57.1923 115.5,58C 112.333,66.0023 109.666,74.1689 107.5,82.5C 104.833,82.5 102.167,82.5 99.5,82.5C 97.4111,74.2333 94.7444,66.2333 91.5,58.5 Z"/></g>
<g><path style="opacity:1" fill="#fcfcfe" d="M 124.5,72.5 C 123.539,74.2646 123.205,76.2646 123.5,78.5C 127.5,78.5 131.5,78.5 135.5,78.5C 135.5,79.8333 135.5,81.1667 135.5,82.5C 129.833,82.5 124.167,82.5 118.5,82.5C 118.5,74.1667 118.5,65.8333 118.5,57.5C 124.167,57.5 129.833,57.5 135.5,57.5C 135.5,58.8333 135.5,60.1667 135.5,61.5C 131.833,61.5 128.167,61.5 124.5,61.5C 124.5,63.5 124.5,65.5 124.5,67.5C 127.833,67.5 131.167,67.5 134.5,67.5C 134.5,69.1667 134.5,70.8333 134.5,72.5C 131.167,72.5 127.833,72.5 124.5,72.5 Z"/></g>
<g><path style="opacity:1" fill="#fbfcfe" d="M 139.5,57.5 C 144.179,57.3342 148.845,57.5008 153.5,58C 158.226,60.3883 159.726,64.2216 158,69.5C 156.833,70.6667 155.667,71.8333 154.5,73C 156.041,75.9156 157.707,78.7489 159.5,81.5C 157.5,82.8333 155.5,82.8333 153.5,81.5C 152.167,79.1667 150.833,76.8333 149.5,74.5C 148.311,73.5713 146.978,73.238 145.5,73.5C 145.5,76.5 145.5,79.5 145.5,82.5C 143.5,82.5 141.5,82.5 139.5,82.5C 139.5,74.1667 139.5,65.8333 139.5,57.5 Z"/></g>
<g><path style="opacity:1" fill="#fbfcfe" d="M 166.5,57.5 C 170.182,57.3347 173.848,57.5014 177.5,58C 179.923,59.5707 181.256,61.7374 181.5,64.5C 179.801,64.6602 178.134,64.4935 176.5,64C 173.34,60.4971 170.673,60.6637 168.5,64.5C 168.833,65.1667 169.167,65.8333 169.5,66.5C 173.88,66.9408 177.713,68.6074 181,71.5C 181.893,74.9162 181.393,78.0828 179.5,81C 174.227,83.125 169.06,82.9583 164,80.5C 162.872,78.6547 162.372,76.6547 162.5,74.5C 164.288,74.2148 165.955,74.5481 167.5,75.5C 169.088,78.2571 171.421,79.0904 174.5,78C 175.574,77.2613 176.241,76.2613 176.5,75C 172.305,73.035 168.139,70.8683 164,68.5C 161.584,64.0776 162.417,60.4109 166.5,57.5 Z"/></g>
<g><path style="opacity:1" fill="#fcfcfe" d="M 192.5,57.5 C 195.119,57.2317 197.619,57.565 200,58.5C 202.838,66.35 205.672,74.1833 208.5,82C 203.955,83.2686 201.289,81.6019 200.5,77C 197.446,76.1786 194.446,76.3452 191.5,77.5C 191.114,81.8501 188.781,83.5168 184.5,82.5C 186.763,74.0455 189.429,65.7121 192.5,57.5 Z"/></g>
<g><path style="opacity:1" fill="#fdfdfe" d="M 211.5,57.5 C 216.179,57.3342 220.845,57.5008 225.5,58C 231.794,62.645 232.127,67.8116 226.5,73.5C 227.833,76.1667 229.167,78.8333 230.5,81.5C 228.926,82.6309 227.259,82.7975 225.5,82C 223.583,79.5015 221.916,76.8349 220.5,74C 219.207,73.51 217.873,73.3433 216.5,73.5C 216.5,76.5 216.5,79.5 216.5,82.5C 214.833,82.5 213.167,82.5 211.5,82.5C 211.5,74.1667 211.5,65.8333 211.5,57.5 Z"/></g>
<g><path style="opacity:1" fill="#f5f7fd" d="M 234.5,57.5 C 236.5,57.5 238.5,57.5 240.5,57.5C 240.5,63.1667 240.5,68.8333 240.5,74.5C 238.5,74.5 236.5,74.5 234.5,74.5C 234.5,68.8333 234.5,63.1667 234.5,57.5 Z"/></g>
<g><path style="opacity:1" fill="#c1cdf2" d="M 49.5,61.5 C 52.505,61.253 55.005,62.253 57,64.5C 57.9777,68.9002 57.4777,73.0669 55.5,77C 51.4983,79.3745 48.3317,78.5412 46,74.5C 45.3333,71.5 45.3333,68.5 46,65.5C 46.6897,63.6498 47.8564,62.3164 49.5,61.5 Z"/></g>
<g><path style="opacity:1" fill="#c3cff2" d="M 145.5,61.5 C 147.527,61.3379 149.527,61.5045 151.5,62C 154.167,64.3333 154.167,66.6667 151.5,69C 149.527,69.4955 147.527,69.6621 145.5,69.5C 145.5,66.8333 145.5,64.1667 145.5,61.5 Z"/></g>
<g><path style="opacity:1" fill="#c2cef2" d="M 216.5,61.5 C 218.527,61.3379 220.527,61.5045 222.5,62C 225.167,64.3333 225.167,66.6667 222.5,69C 220.527,69.4955 218.527,69.6621 216.5,69.5C 216.5,66.8333 216.5,64.1667 216.5,61.5 Z"/></g>
<g><path style="opacity:1" fill="#c4d0f3" d="M 195.5,63.5 C 197.105,66.1198 198.438,68.9531 199.5,72C 197.527,72.4955 195.527,72.6621 193.5,72.5C 193.756,69.4021 194.422,66.4021 195.5,63.5 Z"/></g>
<g><path style="opacity:1" fill="#dbe2f7" d="M 124.5,72.5 C 124.5,74.1667 124.5,75.8333 124.5,77.5C 128.371,77.185 132.038,77.5184 135.5,78.5C 131.5,78.5 127.5,78.5 123.5,78.5C 123.205,76.2646 123.539,74.2646 124.5,72.5 Z"/></g>
<g><path style="opacity:1" fill="#f9fafd" d="M 236.5,76.5 C 239.966,77.109 240.966,78.9423 239.5,82C 234.289,82.5464 233.289,80.713 236.5,76.5 Z"/></g>
<g><path style="opacity:1" fill="#3aa3f5" d="M 218.5,133.5 C 231.495,163.702 226.161,190.202 202.5,213C 181.741,228.482 159.075,231.815 134.5,223C 113.329,210.58 91.996,198.414 70.5,186.5C 78.1364,181.344 86.1364,176.677 94.5,172.5C 95.3309,165.858 95.8309,159.191 96,152.5C 96.7062,148.006 97.8728,143.673 99.5,139.5C 108.519,118.316 124.186,104.816 146.5,99C 178.371,94.7729 202.371,106.273 218.5,133.5 Z"/></g>
<g><path style="opacity:1" fill="#6ce0f2" d="M 127.5,147.5 C 127.5,148.833 127.5,150.167 127.5,151.5C 124.615,151.194 121.948,151.527 119.5,152.5C 119.5,159.833 119.5,167.167 119.5,174.5C 117.5,174.5 115.5,174.5 113.5,174.5C 113.5,167.167 113.5,159.833 113.5,152.5C 110.833,152.5 108.167,152.5 105.5,152.5C 105.5,150.833 105.5,149.167 105.5,147.5C 112.833,147.5 120.167,147.5 127.5,147.5 Z"/></g>
<g><path style="opacity:1" fill="#6cdff2" d="M 139.5,147.5 C 142.711,147.012 145.544,147.679 148,149.5C 150.641,157.758 153.475,165.925 156.5,174C 154.19,174.497 151.857,174.663 149.5,174.5C 149.643,172.738 149.309,171.071 148.5,169.5C 144.893,168.511 141.226,168.177 137.5,168.5C 137.167,170.5 136.833,172.5 136.5,174.5C 134.5,174.5 132.5,174.5 130.5,174.5C 132.905,165.285 135.905,156.285 139.5,147.5 Z"/></g>
<g><path style="opacity:1" fill="#6de0f2" d="M 159.5,147.5 C 161.5,147.5 163.5,147.5 165.5,147.5C 165.5,154.833 165.5,162.167 165.5,169.5C 169.167,169.5 172.833,169.5 176.5,169.5C 176.5,171.167 176.5,172.833 176.5,174.5C 170.833,174.5 165.167,174.5 159.5,174.5C 159.5,165.5 159.5,156.5 159.5,147.5 Z"/></g>
<g><path style="opacity:1" fill="#6ce0f2" d="M 180.5,147.5 C 182.5,147.5 184.5,147.5 186.5,147.5C 186.335,151.182 186.501,154.848 187,158.5C 190.071,155.352 192.904,152.019 195.5,148.5C 197.833,147.167 200.167,147.167 202.5,148.5C 199.261,151.983 196.261,155.65 193.5,159.5C 196.638,164.471 199.972,169.304 203.5,174C 201.167,174.667 198.833,174.667 196.5,174C 193.877,170.588 191.377,167.088 189,163.5C 186.791,166.789 185.958,170.456 186.5,174.5C 184.5,174.5 182.5,174.5 180.5,174.5C 180.5,165.5 180.5,156.5 180.5,147.5 Z"/></g>
<g><path style="opacity:1" fill="#6ee2f2" d="M 207.5,147.5 C 209.167,147.5 210.833,147.5 212.5,147.5C 212.5,153.833 212.5,160.167 212.5,166.5C 210.833,166.5 209.167,166.5 207.5,166.5C 207.5,160.167 207.5,153.833 207.5,147.5 Z"/></g>
<g><path style="opacity:1" fill="#56c5f3" d="M 127.5,147.5 C 128.451,148.919 128.784,150.585 128.5,152.5C 125.5,152.5 122.5,152.5 119.5,152.5C 121.948,151.527 124.615,151.194 127.5,151.5C 127.5,150.167 127.5,148.833 127.5,147.5 Z"/></g>
<g><path style="opacity:1" fill="#3da8f4" d="M 142.5,153.5 C 144.198,156.231 145.531,159.231 146.5,162.5C 144.604,163.466 142.604,163.799 140.5,163.5C 140.959,160.123 141.626,156.789 142.5,153.5 Z"/></g>
<g><path style="opacity:1" fill="#69dcf2" d="M 208.5,168.5 C 212.485,168.629 213.818,170.463 212.5,174C 206.546,175.227 205.212,173.394 208.5,168.5 Z"/></g>
</svg>
