
<svg xmlns="http://www.w3.org/2000/svg" viewBox="0 0 500 500"><g id="freepik--Plants--inject-47"><g id="freepik--plants--inject-47"><path d="M40.78,383.38a.36.36,0,0,1-.2-.25c-3.71-15-18.31-24-24.54-27.86-1-.62-1.8-1.11-2.32-1.49a7.48,7.48,0,0,1-3.4-6.58A6.46,6.46,0,0,1,14.11,342c5.48-2.76,15.61,3,23.06,13.13,10.44,14.18,8.37,26.12,8.35,26.24a.39.39,0,0,1-.23.28l-4.19,1.79a.4.4,0,0,1-.15,0A.47.47,0,0,1,40.78,383.38Zm-4.22-27.85c-7.24-9.82-17-15.49-22.1-12.9a5.65,5.65,0,0,0-3.38,4.63,6.74,6.74,0,0,0,3.08,5.9c.5.36,1.29.85,2.28,1.46,6.25,3.87,20.81,12.87,24.77,27.89L44.8,381C45,379.39,46.06,368.43,36.56,355.53Z" style="fill:#A46FF2"></path><path d="M43.33,382.4h.05a.38.38,0,0,0,.33-.43c-2.38-17.79-17.26-33-26.06-35.28a.38.38,0,0,0-.19.74c8.7,2.24,23.24,17.77,25.49,34.64A.39.39,0,0,0,43.33,382.4Z" style="fill:#A46FF2"></path><path d="M45.14,381.63a.35.35,0,0,0,.17,0l2.82-1.34a.4.4,0,0,0,.21-.29c0-.17,2.67-17.92-4.65-40.16C40,328.46,31.46,318.15,23.47,315.27a11.53,11.53,0,0,0-10.48.86,5.78,5.78,0,0,0-3,4.13c-.56,4.5,4.9,10.25,10.68,16.34,4.05,4.26,8.23,8.66,10.46,12.77a.38.38,0,0,0,.52.15.37.37,0,0,0,.15-.51c-2.27-4.2-6.49-8.64-10.57-12.94-5.66-5.95-11-11.57-10.48-15.72a4.93,4.93,0,0,1,2.61-3.57,10.75,10.75,0,0,1,9.81-.79c7.79,2.8,16.1,12.92,19.76,24,6.85,20.82,4.91,37.62,4.65,39.62L45,380.91a.38.38,0,0,0,.16.72Z" style="fill:#A46FF2"></path><path d="M44.23,370.72h0a.37.37,0,0,0,.35-.4C42.67,342.53,24,322.89,18.91,319.8a.38.38,0,0,0-.39.66c5,3,23.41,22.43,25.33,49.91A.38.38,0,0,0,44.23,370.72Z" style="fill:#A46FF2"></path></g><g id="freepik--plants--inject-47"><path d="M439.48,326.19a.42.42,0,0,1-.15,0l-4.28-1.82a.38.38,0,0,1-.23-.29c0-.12-2.14-12.31,8.51-26.78,7.61-10.32,17.95-16.21,23.54-13.4a6.63,6.63,0,0,1,3.87,5.36,7.67,7.67,0,0,1-3.47,6.72c-.53.38-1.34.88-2.37,1.52-6.36,3.93-21.26,13.14-25,28.43a.37.37,0,0,1-.21.25A.34.34,0,0,1,439.48,326.19Zm-3.93-2.49,3.67,1.56c4-15.33,18.89-24.52,25.27-28.46,1-.63,1.82-1.13,2.32-1.49a6.93,6.93,0,0,0,3.16-6,5.78,5.78,0,0,0-3.45-4.72c-5.27-2.65-15.17,3.14-22.56,13.17C434.27,310.89,435.33,322.07,435.55,323.7Z" style="fill:#A46FF2"></path><path d="M437.05,325.15H437a.39.39,0,0,1-.34-.44c2.43-18.16,17.61-33.7,26.59-36a.39.39,0,1,1,.2.76c-8.88,2.28-23.72,18.13-26,35.35A.38.38,0,0,1,437.05,325.15Z" style="fill:#A46FF2"></path><path d="M435.2,324.36a.33.33,0,0,1-.17,0L432.15,323a.37.37,0,0,1-.22-.29c0-.18-2.72-18.29,4.75-41,3.8-11.56,12.48-22.09,20.64-25a11.72,11.72,0,0,1,10.69.89,5.83,5.83,0,0,1,3,4.2c.58,4.6-5,10.47-10.9,16.68-4.13,4.35-8.4,8.84-10.68,13a.39.39,0,0,1-.68-.37c2.32-4.29,6.63-8.82,10.79-13.21,5.78-6.07,11.23-11.81,10.7-16a5.08,5.08,0,0,0-2.66-3.65,11,11,0,0,0-10-.8c-7.95,2.86-16.43,13.18-20.16,24.54-7,21.24-5,38.39-4.75,40.43l2.7,1.28a.39.39,0,0,1-.17.74Z" style="fill:#A46FF2"></path><path d="M436.13,313.23h0a.39.39,0,0,1-.36-.42c2-28.35,21-48.4,26.22-51.55a.39.39,0,0,1,.41.67c-5.14,3.1-23.9,22.89-25.86,50.94A.38.38,0,0,1,436.13,313.23Z" style="fill:#A46FF2"></path></g></g><g id="freepik--Boxes--inject-47"><g id="freepik--html--inject-47"><g id="freepik--box--inject-47"><path id="freepik--shadow--inject-47" d="M213.15,34l-35,20.19a3.1,3.1,0,0,0-1.4,2.42V98.87c0,.89.63,1.25,1.4.81l35-20.19a3.11,3.11,0,0,0,1.4-2.43V34.83C214.55,33.94,213.92,33.58,213.15,34Z" style="opacity:0.1"></path><g id="freepik--box--inject-47"><path d="M218.52,35.71l-35,20.19a3.09,3.09,0,0,0-1.4,2.42v42.23a3,3,0,0,0,1.41,2.41l2.66,1.52a3.12,3.12,0,0,0,2.81,0l35-20.18a3.12,3.12,0,0,0,1.4-2.43V39.62A3.05,3.05,0,0,0,224,37.21l-2.66-1.52A3.16,3.16,0,0,0,218.52,35.71Z" style="fill:#A46FF2"></path><path d="M189,104.46a3.22,3.22,0,0,1-2.81,0L183.49,103a3,3,0,0,1-1.41-2.41V58.32a2.79,2.79,0,0,1,.45-1.43L188,60a2.92,2.92,0,0,0-.41,1.38v42.23C187.56,104.47,188.14,104.94,189,104.46Z" style="opacity:0.2"></path><path d="M225.38,39.36c-.11-.7-.68-1-1.38-.55L189,59a2.92,2.92,0,0,0-1,1l-5.45-3.15a2.77,2.77,0,0,1,1-1l35-20.19a3.12,3.12,0,0,1,2.81,0L224,37.2A3.11,3.11,0,0,1,225.38,39.36Z" style="fill:#fff;opacity:0.5"></path><path d="M224,38.81,189,59a3.09,3.09,0,0,0-1.4,2.42v42.23c0,.9.63,1.26,1.4.81l35-20.18a3.12,3.12,0,0,0,1.4-2.43V39.62C225.4,38.73,224.77,38.36,224,38.81Z" style="fill:#A46FF2"></path></g><g id="freepik----inject-47"><path d="M197.29,67a1.14,1.14,0,0,1,.09-.48,2.6,2.6,0,0,1,.25-.45l4.57-7.4a.3.3,0,0,1,.07-.08l.06,0a.14.14,0,0,1,.17,0,.35.35,0,0,1,.07.23v2.85a1.27,1.27,0,0,1-.14.6,3.1,3.1,0,0,1-.23.39l-2,3.07,2,.78a1,1,0,0,1,.23.11c.09.06.14.2.14.44V69.9a.82.82,0,0,1-.07.3.54.54,0,0,1-.17.21l-.06,0h-.07l-4.57-2.12a.67.67,0,0,1-.25-.16.6.6,0,0,1-.09-.38Z" style="fill:#fff"></path><path d="M207.26,54.49a2.42,2.42,0,0,1,.18-.46.75.75,0,0,1,.33-.35l1.53-.89a.15.15,0,0,1,.18,0,.32.32,0,0,1,.07.23,1.41,1.41,0,0,1,0,.18l-3.87,16.47a2,2,0,0,1-.16.44.77.77,0,0,1-.34.37l-1.5.87a.13.13,0,0,1-.17,0,.32.32,0,0,1-.08-.23,1.41,1.41,0,0,1,0-.18Z" style="fill:#fff"></path><path d="M215.67,57.16a1.14,1.14,0,0,1-.09.48,3.62,3.62,0,0,1-.25.45l-4.57,7.39-.07.09-.05,0a.15.15,0,0,1-.18,0,.32.32,0,0,1-.06-.22V62.52a1.13,1.13,0,0,1,.13-.58,3.39,3.39,0,0,1,.23-.38l2-3.09-2-.77a.85.85,0,0,1-.23-.12c-.09-.06-.13-.21-.13-.44V54.29a.81.81,0,0,1,.06-.31.51.51,0,0,1,.18-.2l.05,0h.07l4.57,2.11a.69.69,0,0,1,.25.17.57.57,0,0,1,.09.38Z" style="fill:#fff"></path></g><path d="M205.69,83.59a9.66,9.66,0,0,1-.32,2.56,9.51,9.51,0,0,1-.87,2.22,8,8,0,0,1-1.27,1.76,6.52,6.52,0,0,1-1.52,1.22,3.93,3.93,0,0,1-1.6.57,2,2,0,0,1-1.25-.25,2.19,2.19,0,0,1-.83-1,5,5,0,0,1-.32-1.83.87.87,0,0,1,.09-.37.6.6,0,0,1,.21-.25l1.71-1c.17-.1.28-.12.34-.07a.92.92,0,0,1,.16.38,1.09,1.09,0,0,0,.5.77c.23.11.56,0,1-.2a2.82,2.82,0,0,0,1.14-1.25,4.39,4.39,0,0,0,.38-1.92V79.13l-4.58,2.65a.19.19,0,0,1-.25,0,.45.45,0,0,1-.11-.33V79.24a1.06,1.06,0,0,1,.11-.45.62.62,0,0,1,.25-.31l6.68-3.86a.2.2,0,0,1,.26,0,.45.45,0,0,1,.1.33Z" style="fill:#fafafa"></path><path d="M211,71.16a3.52,3.52,0,0,1,1.58-.53,2.22,2.22,0,0,1,1.23.27,2,2,0,0,1,.82.84,2.62,2.62,0,0,1,.31,1.21.87.87,0,0,1-.09.37.54.54,0,0,1-.19.24l-1.76,1a.5.5,0,0,1-.3.09.53.53,0,0,1-.23-.11l-.13-.14a.66.66,0,0,0-.25-.15.82.82,0,0,0-.4,0,1.54,1.54,0,0,0-.59.23,5.25,5.25,0,0,0-.49.33,3.18,3.18,0,0,0-.41.41,2,2,0,0,0-.3.49,1.58,1.58,0,0,0-.11.58.61.61,0,0,0,.13.44.57.57,0,0,0,.43.13,3.52,3.52,0,0,0,.79-.12c.33-.08.74-.18,1.23-.32a4.2,4.2,0,0,1,1.29-.16,1.51,1.51,0,0,1,.92.35,1.84,1.84,0,0,1,.55.92,5.64,5.64,0,0,1,.18,1.57,7.19,7.19,0,0,1-.31,2.06,8.82,8.82,0,0,1-.86,1.91,9.11,9.11,0,0,1-1.32,1.65A7.68,7.68,0,0,1,211,86a3.93,3.93,0,0,1-1.66.59,2.24,2.24,0,0,1-1.29-.23,2,2,0,0,1-.85-.88,2.94,2.94,0,0,1-.33-1.36.84.84,0,0,1,.09-.37.53.53,0,0,1,.2-.25l1.75-1a.62.62,0,0,1,.29-.1.47.47,0,0,1,.22.09l.16.18a1.16,1.16,0,0,0,.29.22.89.89,0,0,0,.45.07,1.64,1.64,0,0,0,.68-.24,5.14,5.14,0,0,0,1.18-.92,1.64,1.64,0,0,0,.48-1.13.46.46,0,0,0-.17-.42.9.9,0,0,0-.53-.08,6.09,6.09,0,0,0-.89.17l-1.28.33a1.93,1.93,0,0,1-2-.35,3.66,3.66,0,0,1-.64-2.47,7.16,7.16,0,0,1,.26-1.84,8.77,8.77,0,0,1,.76-1.86,8.51,8.51,0,0,1,1.2-1.67A6.54,6.54,0,0,1,211,71.16Z" style="fill:#fafafa"></path></g><g id="freepik--box--inject-47"><path id="freepik--shadow--inject-47" d="M213.15,103.19l-35,20.19a3.1,3.1,0,0,0-1.4,2.42V168c0,.89.63,1.25,1.4.81l35-20.19a3.11,3.11,0,0,0,1.4-2.43V104C214.55,103.11,213.92,102.75,213.15,103.19Z" style="opacity:0.1"></path><g id="freepik--box--inject-47"><path d="M218.52,104.88l-35,20.19a3.09,3.09,0,0,0-1.4,2.42v42.23a3,3,0,0,0,1.41,2.41l2.66,1.52a3.12,3.12,0,0,0,2.81,0l35-20.18a3.12,3.12,0,0,0,1.4-2.43V108.79a3.05,3.05,0,0,0-1.41-2.41l-2.66-1.52A3.16,3.16,0,0,0,218.52,104.88Z" style="fill:#A46FF2"></path><path d="M189,173.63a3.19,3.19,0,0,1-2.81,0l-2.66-1.52a3,3,0,0,1-1.41-2.41V127.49a2.79,2.79,0,0,1,.45-1.43l5.44,3.15a2.92,2.92,0,0,0-.41,1.38v42.23C187.56,173.64,188.14,174.11,189,173.63Z" style="opacity:0.2"></path><path d="M225.38,108.53c-.11-.7-.68-1-1.38-.55l-35,20.19a2.92,2.92,0,0,0-1,1l-5.45-3.15a2.77,2.77,0,0,1,1-1l35-20.19a3.12,3.12,0,0,1,2.81,0l2.66,1.51A3.11,3.11,0,0,1,225.38,108.53Z" style="fill:#fff;opacity:0.5"></path><path d="M224,108l-35,20.19a3.09,3.09,0,0,0-1.4,2.42v42.23c0,.9.63,1.26,1.4.81l35-20.18a3.12,3.12,0,0,0,1.4-2.43V108.79C225.4,107.9,224.77,107.53,224,108Z" style="fill:#A46FF2"></path></g><g id="freepik----inject-47"><path d="M197.29,136.2a1.14,1.14,0,0,1,.09-.48,2.6,2.6,0,0,1,.25-.45l4.57-7.4a.3.3,0,0,1,.07-.08l.06,0a.14.14,0,0,1,.17,0,.35.35,0,0,1,.07.23v2.85a1.24,1.24,0,0,1-.14.6,3.1,3.1,0,0,1-.23.39l-2,3.07,2,.78a1,1,0,0,1,.23.11c.09.06.14.2.14.44v2.85a.82.82,0,0,1-.07.3.54.54,0,0,1-.17.21l-.06,0h-.07l-4.57-2.12a.67.67,0,0,1-.25-.16.6.6,0,0,1-.09-.38Z" style="fill:#fff"></path><path d="M207.26,123.66a2.42,2.42,0,0,1,.18-.46.75.75,0,0,1,.33-.35l1.53-.89a.15.15,0,0,1,.18,0,.32.32,0,0,1,.07.23,1.41,1.41,0,0,1,0,.18l-3.87,16.47a2,2,0,0,1-.16.44.77.77,0,0,1-.34.37l-1.5.87a.13.13,0,0,1-.17,0,.32.32,0,0,1-.08-.23,1.41,1.41,0,0,1,0-.18Z" style="fill:#fff"></path><path d="M215.67,126.33a1.14,1.14,0,0,1-.09.48,3.62,3.62,0,0,1-.25.45l-4.57,7.39-.07.09-.05,0a.14.14,0,0,1-.18,0,.32.32,0,0,1-.06-.22V131.7a1.17,1.17,0,0,1,.13-.59,3.39,3.39,0,0,1,.23-.38l2-3.09-2-.77a.85.85,0,0,1-.23-.12c-.09-.06-.13-.21-.13-.44v-2.85a.81.81,0,0,1,.06-.31.51.51,0,0,1,.18-.2l.05,0a.08.08,0,0,1,.07,0l4.57,2.11a.69.69,0,0,1,.25.17.57.57,0,0,1,.09.38Z" style="fill:#fff"></path></g><path d="M195.85,154.75c0,.19,0,.44,0,.76s0,.64,0,1,0,.67,0,1,0,.56,0,.74a3.53,3.53,0,0,0,.12.83,1.35,1.35,0,0,0,.29.6.74.74,0,0,0,.51.23,1.4,1.4,0,0,0,.76-.25,2.69,2.69,0,0,0,.75-.59,4.13,4.13,0,0,0,.49-.68,3.41,3.41,0,0,0,.28-.7c.07-.23.12-.44.16-.62a2.51,2.51,0,0,1,.14-.55.77.77,0,0,1,.31-.31l1.76-1a.15.15,0,0,1,.2,0,.35.35,0,0,1,.09.27,8.41,8.41,0,0,1-.33,2.17,10.12,10.12,0,0,1-.89,2.12,9.64,9.64,0,0,1-1.32,1.84,6.66,6.66,0,0,1-1.64,1.35,3.4,3.4,0,0,1-1.72.55,1.91,1.91,0,0,1-1.29-.46,2.83,2.83,0,0,1-.82-1.3,6.81,6.81,0,0,1-.33-2q0-.83,0-1.8c0-.65,0-1.27,0-1.87a10.62,10.62,0,0,1,.32-2.34,11.48,11.48,0,0,1,.82-2.26,9.6,9.6,0,0,1,1.3-1.95,6.7,6.7,0,0,1,1.72-1.44,3.79,3.79,0,0,1,1.64-.55,2.28,2.28,0,0,1,1.32.32,2.42,2.42,0,0,1,.89,1.1,4.76,4.76,0,0,1,.33,1.79.87.87,0,0,1-.09.37.52.52,0,0,1-.2.25l-1.76,1c-.15.09-.25.11-.31.05a1,1,0,0,1-.14-.38,3.05,3.05,0,0,0-.16-.45.84.84,0,0,0-.28-.36.91.91,0,0,0-.49-.12,1.63,1.63,0,0,0-.75.27,2.75,2.75,0,0,0-.76.63,3.87,3.87,0,0,0-.51.82,4.27,4.27,0,0,0-.29.94A5.36,5.36,0,0,0,195.85,154.75Z" style="fill:#fafafa"></path><path d="M206.57,142.87a3.52,3.52,0,0,1,1.58-.53,2.22,2.22,0,0,1,1.23.27,2,2,0,0,1,.82.84,2.62,2.62,0,0,1,.31,1.21.87.87,0,0,1-.09.37.48.48,0,0,1-.19.24l-1.76,1a.5.5,0,0,1-.3.09.53.53,0,0,1-.23-.11l-.13-.14a.66.66,0,0,0-.25-.15.72.72,0,0,0-.4,0,1.6,1.6,0,0,0-.59.23,5.25,5.25,0,0,0-.49.33,3.18,3.18,0,0,0-.41.41,2,2,0,0,0-.3.49,1.58,1.58,0,0,0-.11.58.61.61,0,0,0,.13.44.57.57,0,0,0,.43.13,3.52,3.52,0,0,0,.79-.12c.33-.08.74-.18,1.23-.32a4.23,4.23,0,0,1,1.29-.16,1.51,1.51,0,0,1,.92.35,1.84,1.84,0,0,1,.55.92,5.64,5.64,0,0,1,.18,1.57,6.86,6.86,0,0,1-.31,2.06,8.82,8.82,0,0,1-.86,1.91,8.7,8.7,0,0,1-1.32,1.65,8.07,8.07,0,0,1-1.65,1.27,4,4,0,0,1-1.66.58,2.24,2.24,0,0,1-1.29-.23,2.07,2.07,0,0,1-.85-.88,2.82,2.82,0,0,1-.32-1.36.8.8,0,0,1,.08-.37.53.53,0,0,1,.2-.25l1.75-1a.65.65,0,0,1,.3-.1.48.48,0,0,1,.21.09l.16.18a.94.94,0,0,0,.29.21.79.79,0,0,0,.45.08,1.64,1.64,0,0,0,.68-.24,5.14,5.14,0,0,0,1.18-.92,1.64,1.64,0,0,0,.48-1.14.46.46,0,0,0-.17-.41.9.9,0,0,0-.53-.08,6.09,6.09,0,0,0-.89.17l-1.28.33a1.93,1.93,0,0,1-2-.35,3.65,3.65,0,0,1-.64-2.47,7.16,7.16,0,0,1,.26-1.84,8.77,8.77,0,0,1,.76-1.86,8.51,8.51,0,0,1,1.2-1.67A6.54,6.54,0,0,1,206.57,142.87Z" style="fill:#fafafa"></path><path d="M215.6,137.66a3.48,3.48,0,0,1,1.57-.53,2.25,2.25,0,0,1,1.24.27,2,2,0,0,1,.82.84,2.75,2.75,0,0,1,.31,1.21.87.87,0,0,1-.09.37.49.49,0,0,1-.2.24l-1.75,1a.41.41,0,0,1-.54,0l-.12-.14a.66.66,0,0,0-.25-.15.84.84,0,0,0-.4,0,1.54,1.54,0,0,0-.59.23,5.25,5.25,0,0,0-.49.33,3.26,3.26,0,0,0-.42.41,1.92,1.92,0,0,0-.29.48,1.47,1.47,0,0,0-.11.59.66.66,0,0,0,.12.44.58.58,0,0,0,.43.13,3.6,3.6,0,0,0,.8-.12c.33-.08.74-.18,1.23-.32a4.2,4.2,0,0,1,1.29-.16,1.53,1.53,0,0,1,.91.34,1.86,1.86,0,0,1,.55.92,5.72,5.72,0,0,1,.18,1.58,6.75,6.75,0,0,1-.31,2,8.24,8.24,0,0,1-.86,1.92,9.05,9.05,0,0,1-1.31,1.65,8.21,8.21,0,0,1-1.65,1.26,4,4,0,0,1-1.67.59,2.32,2.32,0,0,1-1.29-.23,2.12,2.12,0,0,1-.85-.88,3.06,3.06,0,0,1-.32-1.36.81.81,0,0,1,.09-.37.53.53,0,0,1,.19-.25l1.76-1a.52.52,0,0,1,.29-.1.57.57,0,0,1,.22.09,1.72,1.72,0,0,0,.16.18.89.89,0,0,0,.28.21.83.83,0,0,0,.46.08,1.58,1.58,0,0,0,.68-.25,4.83,4.83,0,0,0,1.18-.92,1.6,1.6,0,0,0,.48-1.13.44.44,0,0,0-.18-.41.86.86,0,0,0-.52-.08,5,5,0,0,0-.89.17l-1.28.33a2,2,0,0,1-2-.35,3.72,3.72,0,0,1-.63-2.47,7.1,7.1,0,0,1,.26-1.84,8.27,8.27,0,0,1,.76-1.86,8.9,8.9,0,0,1,1.19-1.67A6.59,6.59,0,0,1,215.6,137.66Z" style="fill:#fafafa"></path></g><g id="freepik--text-box--inject-47"><path id="freepik--shadow--inject-47" d="M116.56,54.37l-80.72,46.5a4.41,4.41,0,0,0-2,3.47v45c0,1.28.89,1.8,2,1.16l80.72-46.5a4.44,4.44,0,0,0,2-3.47v-45C118.56,54.25,117.66,53.73,116.56,54.37Z" style="opacity:0.1"></path><g id="freepik--box--inject-47"><g id="freepik--speech-bubble--inject-47"><g id="freepik--speach-bubble--inject-47"><path d="M124.31,59.22,43.6,105.72a4.42,4.42,0,0,0-2,3.47v45.06a4.38,4.38,0,0,0,2,3.44l3.31,1.88a4.48,4.48,0,0,0,4,0l80.71-46.5a4.42,4.42,0,0,0,2-3.47v-45a4.36,4.36,0,0,0-2-3.45l-3.31-1.88A4.48,4.48,0,0,0,124.31,59.22Z" style="fill:#A46FF2"></path><path d="M124.31,59.22,43.6,105.72a4.42,4.42,0,0,0-2,3.47v45.06a4.38,4.38,0,0,0,2,3.44l3.31,1.88a4.48,4.48,0,0,0,4,0l80.71-46.5a4.42,4.42,0,0,0,2-3.47v-45a4.36,4.36,0,0,0-2-3.45l-3.31-1.88A4.48,4.48,0,0,0,124.31,59.22Z" style="opacity:0.4"></path><path d="M133.63,64.16c-.16-1-1-1.36-2-.79l-80.71,46.5a4.09,4.09,0,0,0-1.41,1.5l-7.31-4.23a3.92,3.92,0,0,1,1.38-1.42l80.72-46.5a4.46,4.46,0,0,1,4,0l3.31,1.87A4.44,4.44,0,0,1,133.63,64.16Z" style="fill:#A46FF2"></path><path d="M131.65,63.37l-80.71,46.5a4.41,4.41,0,0,0-2,3.47v45c0,1.28.89,1.8,2,1.16l80.71-46.5a4.42,4.42,0,0,0,2-3.47v-45C133.66,63.25,132.76,62.73,131.65,63.37Z" style="fill:#A46FF2"></path><g style="opacity:0.2"><path d="M131.65,63.37l-80.71,46.5a4.41,4.41,0,0,0-2,3.47v45c0,1.28.89,1.8,2,1.16l80.71-46.5a4.42,4.42,0,0,0,2-3.47v-45C133.66,63.25,132.76,62.73,131.65,63.37Z"></path></g></g></g></g><path d="M69.27,110.64a.37.37,0,0,1,.49,0,.86.86,0,0,1,.2.63v25.63a2.13,2.13,0,0,1-.2.88,1.33,1.33,0,0,1-.49.6l-3.38,2a.37.37,0,0,1-.49,0,.82.82,0,0,1-.2-.63V130l-5.73,3.3V143a2,2,0,0,1-.2.87,1.33,1.33,0,0,1-.49.6l-3.38,1.95a.39.39,0,0,1-.49,0,.84.84,0,0,1-.2-.66V120.12a2,2,0,0,1,.2-.87,1.33,1.33,0,0,1,.49-.6l3.38-2a.38.38,0,0,1,.49,0,.85.85,0,0,1,.2.64v9.56l5.73-3.3v-9.57a2,2,0,0,1,.2-.87,1.33,1.33,0,0,1,.49-.6Z" style="fill:#fafafa"></path><path d="M88.11,99.76a.38.38,0,0,1,.49,0,.83.83,0,0,1,.21.63v4.21a2,2,0,0,1-.21.87,1.33,1.33,0,0,1-.49.6l-4.54,2.62v20.36a2.12,2.12,0,0,1-.2.87,1.33,1.33,0,0,1-.49.6l-3.38,1.95a.38.38,0,0,1-.49,0,.87.87,0,0,1-.21-.64V111.48l-4.53,2.62a.38.38,0,0,1-.49,0,.85.85,0,0,1-.21-.64v-4.2a2,2,0,0,1,.21-.88,1.33,1.33,0,0,1,.49-.6Z" style="fill:#fafafa"></path><path d="M100,113.7a1.7,1.7,0,0,1-.35-.46l-2.42-5.14v13.13a2,2,0,0,1-.21.87,1.22,1.22,0,0,1-.49.6l-3.37,2a.38.38,0,0,1-.49,0,.84.84,0,0,1-.21-.64V98.35a2,2,0,0,1,.21-.87,1.33,1.33,0,0,1,.49-.6l3-1.73c.34-.2.6-.2.77,0a3.11,3.11,0,0,1,.34.44l4.17,8.58,4.18-13.4c0-.16.16-.44.33-.83a1.82,1.82,0,0,1,.78-.88l3-1.73a.37.37,0,0,1,.49,0,.83.83,0,0,1,.21.63v25.64a2,2,0,0,1-.21.87,1.27,1.27,0,0,1-.49.6l-3.37,2a.37.37,0,0,1-.49,0,.83.83,0,0,1-.21-.63V103.25l-2.42,7.94a7.81,7.81,0,0,1-.35.86,1.49,1.49,0,0,1-.6.68l-1.65,1C100.3,113.83,100.1,113.84,100,113.7Z" style="fill:#fafafa"></path><path d="M127.88,98.23a.38.38,0,0,1,.49,0,.91.91,0,0,1,.2.64v4.21a2.12,2.12,0,0,1-.2.87,1.33,1.33,0,0,1-.49.6l-11.94,6.89a.37.37,0,0,1-.49,0,.86.86,0,0,1-.2-.63V85.17a2.13,2.13,0,0,1,.2-.88,1.33,1.33,0,0,1,.49-.6l3.38-2a.38.38,0,0,1,.49,0,.83.83,0,0,1,.21.63v20.36Z" style="fill:#fafafa"></path></g><path d="M141.24,70.82c1.15-.67,2.09-.13,2.09,1.2a4.64,4.64,0,0,1-2.09,3.63c-1.16.67-2.1.13-2.1-1.21A4.61,4.61,0,0,1,141.24,70.82Z" style="fill:#455a64"></path><path d="M174.73,80.49c1.16-.67,2.09-.13,2.09,1.2a4.62,4.62,0,0,1-2.09,3.63c-1.16.67-2.09.13-2.09-1.21A4.6,4.6,0,0,1,174.73,80.49Z" style="fill:#455a64"></path><path d="M164.14,89.23a2.51,2.51,0,0,1-2.49-2.49V64.5a1.42,1.42,0,0,0-2.13-1.23l-18,10.41-.51-.89,18-10.41a2.45,2.45,0,0,1,3.67,2.12V86.74A1.46,1.46,0,0,0,164.87,88l9.6-5.54.52.89-9.6,5.54A2.45,2.45,0,0,1,164.14,89.23Z" style="fill:#455a64"></path><path d="M141.24,95c1.15-.66,2.09-.12,2.09,1.21a4.64,4.64,0,0,1-2.09,3.63c-1.16.67-2.1.12-2.1-1.21A4.63,4.63,0,0,1,141.24,95Z" style="fill:#455a64"></path><path d="M174.73,148.17c1.16-.67,2.09-.13,2.09,1.21a4.61,4.61,0,0,1-2.09,3.62c-1.16.67-2.09.13-2.09-1.21A4.6,4.6,0,0,1,174.73,148.17Z" style="fill:#455a64"></path><path d="M155.77,161.73a2.49,2.49,0,0,1-2.49-2.49V93.5a1.42,1.42,0,0,0-2.13-1.23l-9.66,5.59L141,97l9.65-5.58a2.45,2.45,0,0,1,3.68,2.12v65.74a1.45,1.45,0,0,0,.73,1.26,1.42,1.42,0,0,0,1.46,0l18-10.36.52.89L157,161.4A2.5,2.5,0,0,1,155.77,161.73Z" style="fill:#455a64"></path></g></g><g id="freepik--Gears--inject-47"><g id="freepik--gears--inject-47"><g id="freepik--Gear--inject-47"><path d="M262.19,117.79a1.77,1.77,0,0,1-.91-.24l-4.85-2.8a1.83,1.83,0,0,1-.72-2.39l4.47-9a1.08,1.08,0,0,0-.06-.84,15.3,15.3,0,0,1-1.58-3.5l-6.71,3a1.37,1.37,0,0,1-2-1.3V92a2.83,2.83,0,0,1,1.11-2.15L257.82,85a2.1,2.1,0,0,0,.64-1,45.45,45.45,0,0,1,1.77-6,.66.66,0,0,0-.14-.59l-3.89-3.34a2,2,0,0,1-.41-2.46l5.54-9.59a2,2,0,0,1,2.33-.87l4.84,1.69a.62.62,0,0,0,.58-.17,46.08,46.08,0,0,1,4.27-4.51,2.1,2.1,0,0,0,.52-1l.76-8.39a2.82,2.82,0,0,1,1.3-2l7.54-4.35a1.42,1.42,0,0,1,1.38-.08,1.46,1.46,0,0,1,.75,1.17l.73,7.32a15.66,15.66,0,0,1,3.84-.39h0a1.07,1.07,0,0,0,.74-.36l5.58-8.38a1.81,1.81,0,0,1,2.42-.57l4.85,2.8a1.82,1.82,0,0,1,.72,2.39l-4.47,9a1,1,0,0,0,.07.84,15.51,15.51,0,0,1,1.57,3.5l6.72-3a1.41,1.41,0,0,1,1.38.06A1.44,1.44,0,0,1,310.4,58v8.7a2.81,2.81,0,0,1-1.12,2.15l-6.89,4.85a2,2,0,0,0-.63,1A47.12,47.12,0,0,1,300,80.6a.63.63,0,0,0,.14.58L304,84.53a2,2,0,0,1,.41,2.46l-5.54,9.59a2,2,0,0,1-2.33.87l-4.84-1.69a.66.66,0,0,0-.58.17,46,46,0,0,1-4.26,4.51,2,2,0,0,0-.53,1l-.75,8.39a2.83,2.83,0,0,1-1.31,2l-7.53,4.35a1.37,1.37,0,0,1-2.13-1.09l-.74-7.32a15.7,15.7,0,0,1-3.84.39.87.87,0,0,0-.76.36L263.71,117A1.81,1.81,0,0,1,262.19,117.79Zm-3.64-20.44a1.46,1.46,0,0,1,.65.14,1.68,1.68,0,0,1,.9,1,14.27,14.27,0,0,0,1.41,3.14,2.69,2.69,0,0,1,.14,2.42l-4.47,9a.19.19,0,0,0,.07.24l4.85,2.81a.21.21,0,0,0,.25-.06l5.57-8.38a2.72,2.72,0,0,1,2.16-1.09,14.13,14.13,0,0,0,3.43-.35,1.69,1.69,0,0,1,1.34.26,1.59,1.59,0,0,1,.66,1.16l.7,7,7.26-4.19a1.18,1.18,0,0,0,.49-.77l.75-8.39a3.64,3.64,0,0,1,1.05-2.09,43.89,43.89,0,0,0,4.11-4.35,2.27,2.27,0,0,1,2.38-.67l4.84,1.69a.38.38,0,0,0,.38-.14l5.54-9.6a.37.37,0,0,0-.07-.4l-3.88-3.35a2.24,2.24,0,0,1-.61-2.39,43.8,43.8,0,0,0,1.71-5.74,3.63,3.63,0,0,1,1.29-2l6.89-4.85a1.19,1.19,0,0,0,.42-.81V58.3l-6.41,2.89a1.62,1.62,0,0,1-1.33,0,1.65,1.65,0,0,1-.9-1A14.16,14.16,0,0,0,298.7,57a2.67,2.67,0,0,1-.13-2.41l4.47-9a.19.19,0,0,0-.08-.24l-4.85-2.81a.2.2,0,0,0-.24.06L292.29,51a2.54,2.54,0,0,1-2.16,1.09,14.86,14.86,0,0,0-3.43.35,1.66,1.66,0,0,1-1.34-.26,1.58,1.58,0,0,1-.65-1.16L284,44l-7.25,4.19a1.2,1.2,0,0,0-.5.77l-.75,8.39a3.61,3.61,0,0,1-1.05,2.09,46.36,46.36,0,0,0-4.11,4.35,2.25,2.25,0,0,1-2.38.67l-4.84-1.69a.36.36,0,0,0-.37.14l-5.55,9.6a.39.39,0,0,0,.07.4l3.88,3.35a2.25,2.25,0,0,1,.61,2.39,45.39,45.39,0,0,0-1.71,5.74,3.59,3.59,0,0,1-1.29,1.95l-6.89,4.85a1.19,1.19,0,0,0-.42.81v8.38l6.41-2.89A1.72,1.72,0,0,1,258.55,97.35Zm15.87-.74a7.43,7.43,0,0,1-3.73-1c-2.66-1.54-4.13-4.72-4.13-9,0-8.37,5.89-18.58,13.14-22.76,3.66-2.12,7.15-2.44,9.82-.9s4.14,4.72,4.14,8.95c0,8.37-5.9,18.58-13.15,22.76h0A12.27,12.27,0,0,1,274.42,96.61Zm11.37-32.89a10.73,10.73,0,0,0-5.28,1.63c-6.79,3.92-12.32,13.5-12.32,21.35,0,3.62,1.18,6.3,3.32,7.53s5.05.92,8.19-.89h0C286.49,89.42,292,79.84,292,72c0-3.62-1.18-6.3-3.32-7.53A5.7,5.7,0,0,0,285.79,63.72Z" style="fill:#A46FF2"></path><path d="M262.19,117.79a1.77,1.77,0,0,1-.91-.24l-4.85-2.8a1.83,1.83,0,0,1-.72-2.39l4.47-9a1.08,1.08,0,0,0-.06-.84,15.3,15.3,0,0,1-1.58-3.5l-6.71,3a1.37,1.37,0,0,1-2-1.3V92a2.83,2.83,0,0,1,1.11-2.15L257.82,85a2.1,2.1,0,0,0,.64-1,45.45,45.45,0,0,1,1.77-6,.66.66,0,0,0-.14-.59l-3.89-3.34a2,2,0,0,1-.41-2.46l5.54-9.59a2,2,0,0,1,2.33-.87l4.84,1.69a.62.62,0,0,0,.58-.17,46.08,46.08,0,0,1,4.27-4.51,2.1,2.1,0,0,0,.52-1l.76-8.39a2.82,2.82,0,0,1,1.3-2l7.54-4.35a1.42,1.42,0,0,1,1.38-.08,1.46,1.46,0,0,1,.75,1.17l.73,7.32a15.66,15.66,0,0,1,3.84-.39h0a1.07,1.07,0,0,0,.74-.36l5.58-8.38a1.81,1.81,0,0,1,2.42-.57l4.85,2.8a1.82,1.82,0,0,1,.72,2.39l-4.47,9a1,1,0,0,0,.07.84,15.51,15.51,0,0,1,1.57,3.5l6.72-3a1.41,1.41,0,0,1,1.38.06A1.44,1.44,0,0,1,310.4,58v8.7a2.81,2.81,0,0,1-1.12,2.15l-6.89,4.85a2,2,0,0,0-.63,1A47.12,47.12,0,0,1,300,80.6a.63.63,0,0,0,.14.58L304,84.53a2,2,0,0,1,.41,2.46l-5.54,9.59a2,2,0,0,1-2.33.87l-4.84-1.69a.66.66,0,0,0-.58.17,46,46,0,0,1-4.26,4.51,2,2,0,0,0-.53,1l-.75,8.39a2.83,2.83,0,0,1-1.31,2l-7.53,4.35a1.37,1.37,0,0,1-2.13-1.09l-.74-7.32a15.7,15.7,0,0,1-3.84.39.87.87,0,0,0-.76.36L263.71,117A1.81,1.81,0,0,1,262.19,117.79Zm-3.64-20.44a1.46,1.46,0,0,1,.65.14,1.68,1.68,0,0,1,.9,1,14.27,14.27,0,0,0,1.41,3.14,2.69,2.69,0,0,1,.14,2.42l-4.47,9a.19.19,0,0,0,.07.24l4.85,2.81a.21.21,0,0,0,.25-.06l5.57-8.38a2.72,2.72,0,0,1,2.16-1.09,14.13,14.13,0,0,0,3.43-.35,1.69,1.69,0,0,1,1.34.26,1.59,1.59,0,0,1,.66,1.16l.7,7,7.26-4.19a1.18,1.18,0,0,0,.49-.77l.75-8.39a3.64,3.64,0,0,1,1.05-2.09,43.89,43.89,0,0,0,4.11-4.35,2.27,2.27,0,0,1,2.38-.67l4.84,1.69a.38.38,0,0,0,.38-.14l5.54-9.6a.37.37,0,0,0-.07-.4l-3.88-3.35a2.24,2.24,0,0,1-.61-2.39,43.8,43.8,0,0,0,1.71-5.74,3.63,3.63,0,0,1,1.29-2l6.89-4.85a1.19,1.19,0,0,0,.42-.81V58.3l-6.41,2.89a1.62,1.62,0,0,1-1.33,0,1.65,1.65,0,0,1-.9-1A14.16,14.16,0,0,0,298.7,57a2.67,2.67,0,0,1-.13-2.41l4.47-9a.19.19,0,0,0-.08-.24l-4.85-2.81a.2.2,0,0,0-.24.06L292.29,51a2.54,2.54,0,0,1-2.16,1.09,14.86,14.86,0,0,0-3.43.35,1.66,1.66,0,0,1-1.34-.26,1.58,1.58,0,0,1-.65-1.16L284,44l-7.25,4.19a1.2,1.2,0,0,0-.5.77l-.75,8.39a3.61,3.61,0,0,1-1.05,2.09,46.36,46.36,0,0,0-4.11,4.35,2.25,2.25,0,0,1-2.38.67l-4.84-1.69a.36.36,0,0,0-.37.14l-5.55,9.6a.39.39,0,0,0,.07.4l3.88,3.35a2.25,2.25,0,0,1,.61,2.39,45.39,45.39,0,0,0-1.71,5.74,3.59,3.59,0,0,1-1.29,1.95l-6.89,4.85a1.19,1.19,0,0,0-.42.81v8.38l6.41-2.89A1.72,1.72,0,0,1,258.55,97.35Zm15.87-.74a7.43,7.43,0,0,1-3.73-1c-2.66-1.54-4.13-4.72-4.13-9,0-8.37,5.89-18.58,13.14-22.76,3.66-2.12,7.15-2.44,9.82-.9s4.14,4.72,4.14,8.95c0,8.37-5.9,18.58-13.15,22.76h0A12.27,12.27,0,0,1,274.42,96.61Zm11.37-32.89a10.73,10.73,0,0,0-5.28,1.63c-6.79,3.92-12.32,13.5-12.32,21.35,0,3.62,1.18,6.3,3.32,7.53s5.05.92,8.19-.89h0C286.49,89.42,292,79.84,292,72c0-3.62-1.18-6.3-3.32-7.53A5.7,5.7,0,0,0,285.79,63.72Z" style="fill:#fff;opacity:0.6000000000000001"></path></g><g id="freepik--gear--inject-47"><path d="M299.84,144.72a1.28,1.28,0,0,1-.65-.18l-3.5-2a1.31,1.31,0,0,1-.52-1.71l3.22-6.49a.81.81,0,0,0,0-.61,10.93,10.93,0,0,1-1.14-2.52l-4.83,2.16a1,1,0,0,1-1,0,1,1,0,0,1-.45-.89v-6.27a2.05,2.05,0,0,1,.8-1.55l5-3.49a1.39,1.39,0,0,0,.46-.7,33.54,33.54,0,0,1,1.28-4.29.43.43,0,0,0-.11-.42l-2.79-2.41a1.43,1.43,0,0,1-.3-1.77l4-6.91a1.45,1.45,0,0,1,1.68-.63l3.49,1.22a.47.47,0,0,0,.42-.12,31.81,31.81,0,0,1,3.07-3.25,1.48,1.48,0,0,0,.37-.75l.55-6a2,2,0,0,1,.94-1.47l5.43-3.13a1,1,0,0,1,1.53.78l.53,5.28a11.16,11.16,0,0,1,2.77-.29h0a.72.72,0,0,0,.53-.26l4-6a1.3,1.3,0,0,1,1.74-.41l3.5,2a1.3,1.3,0,0,1,.51,1.71l-3.22,6.5a.79.79,0,0,0,.05.6,10.93,10.93,0,0,1,1.14,2.52l4.83-2.16a1,1,0,0,1,1.45.94v6.26a2.05,2.05,0,0,1-.8,1.55l-5,3.49a1.51,1.51,0,0,0-.46.7,34.71,34.71,0,0,1-1.28,4.29.45.45,0,0,0,.1.42l2.8,2.41a1.45,1.45,0,0,1,.3,1.77l-4,6.91a1.45,1.45,0,0,1-1.68.63l-3.49-1.22a.48.48,0,0,0-.42.12,31.81,31.81,0,0,1-3.07,3.25,1.48,1.48,0,0,0-.37.75l-.55,6a2,2,0,0,1-.94,1.47l-5.43,3.13a1,1,0,0,1-1,.06,1,1,0,0,1-.54-.84l-.53-5.28a11.21,11.21,0,0,1-2.77.29.61.61,0,0,0-.54.26l-4,6A1.3,1.3,0,0,1,299.84,144.72ZM297.22,130a1.28,1.28,0,0,1,.47.1,1.21,1.21,0,0,1,.64.74,10.44,10.44,0,0,0,1,2.27,1.91,1.91,0,0,1,.1,1.74l-3.22,6.49a.16.16,0,0,0,0,.18l3.5,2a.12.12,0,0,0,.17,0l4-6a2,2,0,0,1,1.55-.79,9.64,9.64,0,0,0,2.47-.25,1.21,1.21,0,0,1,1,.19,1.13,1.13,0,0,1,.47.84l.51,5,5.23-3a.88.88,0,0,0,.35-.56l.54-6a2.58,2.58,0,0,1,.76-1.5,33,33,0,0,0,3-3.14,1.64,1.64,0,0,1,1.71-.48L325,129a.29.29,0,0,0,.27-.11l4-6.91a.26.26,0,0,0-.05-.29l-2.79-2.41a1.61,1.61,0,0,1-.44-1.72,32.63,32.63,0,0,0,1.23-4.13,2.63,2.63,0,0,1,.93-1.41l5-3.49a.89.89,0,0,0,.3-.59v-6L328.76,104a1.13,1.13,0,0,1-.95,0,1.15,1.15,0,0,1-.65-.74,10.94,10.94,0,0,0-1-2.27,1.91,1.91,0,0,1-.1-1.74l3.22-6.49a.16.16,0,0,0-.05-.18l-3.5-2a.14.14,0,0,0-.17,0l-4,6a1.86,1.86,0,0,1-1.55.78,10.16,10.16,0,0,0-2.47.25,1.18,1.18,0,0,1-1-.19,1.13,1.13,0,0,1-.47-.83l-.51-5.05-5.23,3a.88.88,0,0,0-.35.56l-.54,6a2.61,2.61,0,0,1-.76,1.51,31.73,31.73,0,0,0-3,3.13,1.62,1.62,0,0,1-1.71.48l-3.49-1.21a.26.26,0,0,0-.27.1l-4,6.91a.26.26,0,0,0,.05.29l2.79,2.41a1.61,1.61,0,0,1,.44,1.72,32.28,32.28,0,0,0-1.23,4.14,2.64,2.64,0,0,1-.93,1.4l-5,3.49a.9.9,0,0,0-.31.59v6l4.63-2.08A1.21,1.21,0,0,1,297.22,130Zm11.43-.53a5.3,5.3,0,0,1-2.68-.69c-1.93-1.11-3-3.4-3-6.45,0-6,4.24-13.38,9.46-16.39,2.64-1.53,5.15-1.76,7.07-.65s3,3.4,3,6.45c0,6-4.24,13.38-9.46,16.39h0A8.9,8.9,0,0,1,308.65,129.46Zm8.19-23.69a7.76,7.76,0,0,0-3.8,1.17c-4.9,2.83-8.88,9.73-8.88,15.38,0,2.61.85,4.54,2.39,5.43s3.64.66,5.9-.64h0c4.9-2.83,8.88-9.73,8.88-15.38,0-2.61-.85-4.54-2.39-5.43A4.23,4.23,0,0,0,316.84,105.77Z" style="fill:#A46FF2"></path><path d="M299.84,144.72a1.28,1.28,0,0,1-.65-.18l-3.5-2a1.31,1.31,0,0,1-.52-1.71l3.22-6.49a.81.81,0,0,0,0-.61,10.93,10.93,0,0,1-1.14-2.52l-4.83,2.16a1,1,0,0,1-1,0,1,1,0,0,1-.45-.89v-6.27a2.05,2.05,0,0,1,.8-1.55l5-3.49a1.39,1.39,0,0,0,.46-.7,33.54,33.54,0,0,1,1.28-4.29.43.43,0,0,0-.11-.42l-2.79-2.41a1.43,1.43,0,0,1-.3-1.77l4-6.91a1.45,1.45,0,0,1,1.68-.63l3.49,1.22a.47.47,0,0,0,.42-.12,31.81,31.81,0,0,1,3.07-3.25,1.48,1.48,0,0,0,.37-.75l.55-6a2,2,0,0,1,.94-1.47l5.43-3.13a1,1,0,0,1,1.53.78l.53,5.28a11.16,11.16,0,0,1,2.77-.29h0a.72.72,0,0,0,.53-.26l4-6a1.3,1.3,0,0,1,1.74-.41l3.5,2a1.3,1.3,0,0,1,.51,1.71l-3.22,6.5a.79.79,0,0,0,.05.6,10.93,10.93,0,0,1,1.14,2.52l4.83-2.16a1,1,0,0,1,1.45.94v6.26a2.05,2.05,0,0,1-.8,1.55l-5,3.49a1.51,1.51,0,0,0-.46.7,34.71,34.71,0,0,1-1.28,4.29.45.45,0,0,0,.1.42l2.8,2.41a1.45,1.45,0,0,1,.3,1.77l-4,6.91a1.45,1.45,0,0,1-1.68.63l-3.49-1.22a.48.48,0,0,0-.42.12,31.81,31.81,0,0,1-3.07,3.25,1.48,1.48,0,0,0-.37.75l-.55,6a2,2,0,0,1-.94,1.47l-5.43,3.13a1,1,0,0,1-1,.06,1,1,0,0,1-.54-.84l-.53-5.28a11.21,11.21,0,0,1-2.77.29.61.61,0,0,0-.54.26l-4,6A1.3,1.3,0,0,1,299.84,144.72ZM297.22,130a1.28,1.28,0,0,1,.47.1,1.21,1.21,0,0,1,.64.74,10.44,10.44,0,0,0,1,2.27,1.91,1.91,0,0,1,.1,1.74l-3.22,6.49a.16.16,0,0,0,0,.18l3.5,2a.12.12,0,0,0,.17,0l4-6a2,2,0,0,1,1.55-.79,9.64,9.64,0,0,0,2.47-.25,1.21,1.21,0,0,1,1,.19,1.13,1.13,0,0,1,.47.84l.51,5,5.23-3a.88.88,0,0,0,.35-.56l.54-6a2.58,2.58,0,0,1,.76-1.5,33,33,0,0,0,3-3.14,1.64,1.64,0,0,1,1.71-.48L325,129a.29.29,0,0,0,.27-.11l4-6.91a.26.26,0,0,0-.05-.29l-2.79-2.41a1.61,1.61,0,0,1-.44-1.72,32.63,32.63,0,0,0,1.23-4.13,2.63,2.63,0,0,1,.93-1.41l5-3.49a.89.89,0,0,0,.3-.59v-6L328.76,104a1.13,1.13,0,0,1-.95,0,1.15,1.15,0,0,1-.65-.74,10.94,10.94,0,0,0-1-2.27,1.91,1.91,0,0,1-.1-1.74l3.22-6.49a.16.16,0,0,0-.05-.18l-3.5-2a.14.14,0,0,0-.17,0l-4,6a1.86,1.86,0,0,1-1.55.78,10.16,10.16,0,0,0-2.47.25,1.18,1.18,0,0,1-1-.19,1.13,1.13,0,0,1-.47-.83l-.51-5.05-5.23,3a.88.88,0,0,0-.35.56l-.54,6a2.61,2.61,0,0,1-.76,1.51,31.73,31.73,0,0,0-3,3.13,1.62,1.62,0,0,1-1.71.48l-3.49-1.21a.26.26,0,0,0-.27.1l-4,6.91a.26.26,0,0,0,.05.29l2.79,2.41a1.61,1.61,0,0,1,.44,1.72,32.28,32.28,0,0,0-1.23,4.14,2.64,2.64,0,0,1-.93,1.4l-5,3.49a.9.9,0,0,0-.31.59v6l4.63-2.08A1.21,1.21,0,0,1,297.22,130Zm11.43-.53a5.3,5.3,0,0,1-2.68-.69c-1.93-1.11-3-3.4-3-6.45,0-6,4.24-13.38,9.46-16.39,2.64-1.53,5.15-1.76,7.07-.65s3,3.4,3,6.45c0,6-4.24,13.38-9.46,16.39h0A8.9,8.9,0,0,1,308.65,129.46Zm8.19-23.69a7.76,7.76,0,0,0-3.8,1.17c-4.9,2.83-8.88,9.73-8.88,15.38,0,2.61.85,4.54,2.39,5.43s3.64.66,5.9-.64h0c4.9-2.83,8.88-9.73,8.88-15.38,0-2.61-.85-4.54-2.39-5.43A4.23,4.23,0,0,0,316.84,105.77Z" style="fill:#fff;opacity:0.6000000000000001"></path></g><g id="freepik--world--inject-47"><path d="M349.5,31.42c-3.48-2-7.9-1.68-12.45.95-10.12,5.84-18.35,21.55-18.35,35,0,7.22,2.39,12.74,6.56,15.15a9.74,9.74,0,0,0,4.95,1.3,15.21,15.21,0,0,0,7.5-2.25c10.12-5.85,18.36-21.55,18.36-35C356.07,39.35,353.67,33.82,349.5,31.42ZM320.06,66.21a44.83,44.83,0,0,1,5.87-19.84,9.5,9.5,0,0,0,2.57.81,47.66,47.66,0,0,0-3.2,16Zm18-8.86,10.08-5.82a47,47,0,0,1-3.23,15.11A14.3,14.3,0,0,0,338,68.35Zm0-1.52v-11a29.87,29.87,0,0,0,7.24-6.33A22.08,22.08,0,0,1,348.14,50Zm0-12.52V33.67a9.61,9.61,0,0,1,6.46,3.76A29.53,29.53,0,0,1,338,43.31Zm-1.32.8A13.75,13.75,0,0,1,330.38,46a50.77,50.77,0,0,1,6.34-11.17Zm-6.86,3.2.35,0a14.64,14.64,0,0,0,6.51-1.74v11l-10.09,5.83A47.27,47.27,0,0,1,329.86,47.31Zm6.86,10.8v11a30.2,30.2,0,0,0-7.25,6.35A22.12,22.12,0,0,1,326.61,64Zm0,12.52v9.66a9.61,9.61,0,0,1-6.47-3.76A29.91,29.91,0,0,1,336.72,70.63Zm1.32-.8A13.73,13.73,0,0,1,344.37,68,51.3,51.3,0,0,1,338,79.12Zm11.42-19.07,5.24-3a44.87,44.87,0,0,1-5.87,19.86,9.68,9.68,0,0,0-2.58-.81A48,48,0,0,0,349.46,50.76Zm5.27-4.57-5.3,3.06a22.5,22.5,0,0,0-3.27-11.8,44.17,44.17,0,0,0,3.15-4.56C352.69,35.16,354.66,39.94,354.73,46.19Zm-6.56-14a42.14,42.14,0,0,1-2.82,4.13,10.88,10.88,0,0,0-5.85-3.76,12.58,12.58,0,0,1,5-1.16A8.52,8.52,0,0,1,348.17,32.23ZM334.3,35.92a53.84,53.84,0,0,0-5.3,10,8.26,8.26,0,0,1-2.41-.7A37.33,37.33,0,0,1,334.3,35.92ZM320,67.75l5.29-3a22.47,22.47,0,0,0,3.27,11.8,44.11,44.11,0,0,0-3.14,4.56C322.07,78.79,320.1,74,320,67.75Zm6.56,14a45,45,0,0,1,2.82-4.11,10.88,10.88,0,0,0,5.82,3.75C332.07,82.73,329.08,82.85,326.59,81.71ZM340.44,78a52.72,52.72,0,0,0,5.31-10,8.31,8.31,0,0,1,2.42.69A37.05,37.05,0,0,1,340.44,78Z" style="fill:#A46FF2"></path><path d="M349.5,31.42c-3.48-2-7.9-1.68-12.45.95-10.12,5.84-18.35,21.55-18.35,35,0,7.22,2.39,12.74,6.56,15.15a9.74,9.74,0,0,0,4.95,1.3,15.21,15.21,0,0,0,7.5-2.25c10.12-5.85,18.36-21.55,18.36-35C356.07,39.35,353.67,33.82,349.5,31.42ZM320.06,66.21a44.83,44.83,0,0,1,5.87-19.84,9.5,9.5,0,0,0,2.57.81,47.66,47.66,0,0,0-3.2,16Zm18-8.86,10.08-5.82a47,47,0,0,1-3.23,15.11A14.3,14.3,0,0,0,338,68.35Zm0-1.52v-11a29.87,29.87,0,0,0,7.24-6.33A22.08,22.08,0,0,1,348.14,50Zm0-12.52V33.67a9.61,9.61,0,0,1,6.46,3.76A29.53,29.53,0,0,1,338,43.31Zm-1.32.8A13.75,13.75,0,0,1,330.38,46a50.77,50.77,0,0,1,6.34-11.17Zm-6.86,3.2.35,0a14.64,14.64,0,0,0,6.51-1.74v11l-10.09,5.83A47.27,47.27,0,0,1,329.86,47.31Zm6.86,10.8v11a30.2,30.2,0,0,0-7.25,6.35A22.12,22.12,0,0,1,326.61,64Zm0,12.52v9.66a9.61,9.61,0,0,1-6.47-3.76A29.91,29.91,0,0,1,336.72,70.63Zm1.32-.8A13.73,13.73,0,0,1,344.37,68,51.3,51.3,0,0,1,338,79.12Zm11.42-19.07,5.24-3a44.87,44.87,0,0,1-5.87,19.86,9.68,9.68,0,0,0-2.58-.81A48,48,0,0,0,349.46,50.76Zm5.27-4.57-5.3,3.06a22.5,22.5,0,0,0-3.27-11.8,44.17,44.17,0,0,0,3.15-4.56C352.69,35.16,354.66,39.94,354.73,46.19Zm-6.56-14a42.14,42.14,0,0,1-2.82,4.13,10.88,10.88,0,0,0-5.85-3.76,12.58,12.58,0,0,1,5-1.16A8.52,8.52,0,0,1,348.17,32.23ZM334.3,35.92a53.84,53.84,0,0,0-5.3,10,8.26,8.26,0,0,1-2.41-.7A37.33,37.33,0,0,1,334.3,35.92ZM320,67.75l5.29-3a22.47,22.47,0,0,0,3.27,11.8,44.11,44.11,0,0,0-3.14,4.56C322.07,78.79,320.1,74,320,67.75Zm6.56,14a45,45,0,0,1,2.82-4.11,10.88,10.88,0,0,0,5.82,3.75C332.07,82.73,329.08,82.85,326.59,81.71ZM340.44,78a52.72,52.72,0,0,0,5.31-10,8.31,8.31,0,0,1,2.42.69A37.05,37.05,0,0,1,340.44,78Z" style="fill:#fff;opacity:0.6000000000000001"></path></g></g></g><g id="freepik--Device--inject-47"><g id="freepik--Laptop--inject-47"><path d="M193.25,379.3a9.79,9.79,0,0,0,4.56,7.58l106.8,61.66a10.06,10.06,0,0,0,9.13,0l166.6-96.18a8.58,8.58,0,0,0,0-15.16l-106.8-61.66a10,10,0,0,0-9.12,0L197.81,371.73A9.76,9.76,0,0,0,193.25,379.3Z" style="fill:#37474f"></path><path d="M197.81,377l106.8,61.67a10.13,10.13,0,0,0,9.13,0l166.6-96.19c2.52-1.45,2.52-3.81,0-5.27l-106.8-61.66a10,10,0,0,0-9.12,0L197.81,371.73C195.29,373.18,195.29,375.54,197.81,377Z" style="fill:#455a64"></path><path d="M309.18,439.76v9.87a9.34,9.34,0,0,1-4.56-1.08L197.81,386.88a8.55,8.55,0,0,1-.46-14.86c-2,1.47-1.89,3.62.46,5l106.81,61.66A9.24,9.24,0,0,0,309.18,439.76Z" style="fill:#263238"></path><path d="M189,371.89c-2.36-1.37-2.23-3.67-2.23-6.58V234.83a10.11,10.11,0,0,1,4.57-7.9l166.6-96.19c2.52-1.45,6.18-1.46,8.32.24s2.76,3.27,2.76,6.18V267.64a10.08,10.08,0,0,1-4.56,7.9L197.81,371.73A9.81,9.81,0,0,1,189,371.89Z" style="fill:#37474f"></path><path d="M369,137.16c0-2.91-2.05-4.09-4.56-2.64l-166.61,96.2a9.07,9.07,0,0,0-3.22,3.41l-6.51-3.79h0a9.32,9.32,0,0,1,3.23-3.41l166.6-96.19c2.52-1.45,6.19-1.48,8.32.24S369,134.25,369,137.16Z" style="fill:#455a64"></path><path d="M197.27,372a9.81,9.81,0,0,1-8.3-.11c-2.36-1.36-2.23-3.67-2.23-6.58V234.83a9.14,9.14,0,0,1,1.34-4.49l6.51,3.77h0a9.31,9.31,0,0,0-1.34,4.49V369.09C193.25,371.79,195,373,197.27,372Z" style="fill:#263238"></path><path d="M200.27,236l160.32-92.54c1.52-.88,2.74-.17,2.74,1.58V266.36a6,6,0,0,1-2.74,4.74L200.27,363.64c-1.52.87-2.74.16-2.74-1.58V240.72A6,6,0,0,1,200.27,236Z"></path><path d="M200.27,236a6,6,0,0,0-2.74,4.74V359.94L356,268.46a6,6,0,0,0,2.73-4.74V144.49Z" style="fill:#263238"></path><path d="M211.9,372.5,365,284.11a4.72,4.72,0,0,1,4.3,0l5.57,3.13a1.31,1.31,0,0,1,0,2.48L221.76,378.1a4.79,4.79,0,0,1-4.3,0L211.9,375A1.31,1.31,0,0,1,211.9,372.5Z" style="fill:#263238"></path><path d="M226.94,381.37,380,293a4.37,4.37,0,0,1,3.93-.22l39.85,23c1,.57.82,1.58-.37,2.27L270.53,406.31a4.39,4.39,0,0,1-3.94.22l-40-22.9C225.59,383.07,225.75,382.05,226.94,381.37Z" style="fill:#263238"></path><path d="M359.6,330.1l4.8-2.77c.2-.11.22-.29,0-.4l-4.59-2.65a.79.79,0,0,0-.7,0l-4.79,2.77c-.2.11-.22.29,0,.4l4.59,2.65A.77.77,0,0,0,359.6,330.1Zm-7-9.57-4.79,2.76c-.2.12-.22.3,0,.41l4.58,2.64a.75.75,0,0,0,.7,0l4.79-2.77c.21-.12.23-.3.05-.4l-4.59-2.65A.79.79,0,0,0,352.6,320.53Zm-15.48,8.94L329,334.15c-.2.12-.22.3,0,.4l4.59,2.65a.79.79,0,0,0,.7,0l8.11-4.69c.2-.11.22-.29,0-.4l-4.59-2.65A.77.77,0,0,0,337.12,329.47Zm8.48-4.9-4.8,2.77c-.2.12-.22.3,0,.4l4.59,2.65a.77.77,0,0,0,.69,0l4.8-2.76c.2-.12.22-.3,0-.4l-4.59-2.65A.74.74,0,0,0,345.6,324.57Zm-18.81,10.86L322,338.2c-.21.11-.22.29,0,.4l4.58,2.65a.79.79,0,0,0,.7,0l4.79-2.77c.21-.11.22-.29,0-.4l-4.58-2.65A.79.79,0,0,0,326.79,335.43Zm-7,4-4.8,2.77c-.2.12-.22.3,0,.4l4.59,2.65a.76.76,0,0,0,.69,0l4.8-2.77c.2-.12.22-.3,0-.4l-4.59-2.65A.8.8,0,0,0,319.79,339.47Zm18,10.81,4.79-2.77c.21-.12.23-.3.05-.4L338,344.46a.82.82,0,0,0-.7,0l-4.79,2.77c-.2.12-.22.3,0,.4l4.58,2.65A.79.79,0,0,0,337.76,350.28Zm-7,4,4.79-2.77c.2-.11.22-.29,0-.4L331,348.51a.74.74,0,0,0-.69,0l-4.8,2.77c-.2.11-.22.29,0,.4l4.59,2.65A.79.79,0,0,0,330.76,354.32Zm-7,4.05,4.79-2.77c.21-.12.22-.3,0-.4L324,352.55a.82.82,0,0,0-.7,0l-4.79,2.77c-.21.12-.22.3,0,.4l4.58,2.65A.79.79,0,0,0,323.75,358.37Zm-7,4,4.8-2.77c.2-.11.22-.29,0-.4L317,356.59a.77.77,0,0,0-.69,0l-4.8,2.77c-.2.11-.22.29,0,.4l4.59,2.65A.77.77,0,0,0,316.74,362.41Zm35.86-28.26,4.79-2.77c.2-.12.22-.3,0-.4l-4.59-2.65a.8.8,0,0,0-.69,0l-4.79,2.77c-.21.12-.23.3-.05.4l4.59,2.65A.79.79,0,0,0,352.6,334.15Zm-7.83,12.08,10.69-6.17c.2-.12.22-.3,0-.4l-11.14-6.43a.74.74,0,0,0-.69,0l-5.53,3.19c-.21.12-.23.3,0,.41l5.89,3.4c.18.1.16.28,0,.4l-4.42,2.56c-.21.11-.23.29,0,.4l4.59,2.65A.79.79,0,0,0,344.77,346.23Zm-32-2.71L308,346.29c-.21.11-.23.29-.05.4l4.59,2.65a.79.79,0,0,0,.7,0l4.79-2.77c.2-.11.22-.29,0-.4l-4.58-2.65A.79.79,0,0,0,312.78,343.52Zm-7,4L301,350.33c-.2.12-.22.3,0,.4l4.58,2.65a.79.79,0,0,0,.7,0l4.79-2.77c.21-.12.23-.3.05-.4l-4.59-2.65A.82.82,0,0,0,305.77,347.56ZM267,390.75a.82.82,0,0,0,.7,0l4.79-2.77c.21-.12.23-.3.05-.4L268,384.91a.79.79,0,0,0-.7,0l-4.79,2.77c-.2.12-.22.3,0,.4Zm-17.27-10.83-4.8,2.77c-.2.12-.22.3,0,.4l4.59,2.65a.8.8,0,0,0,.69,0L255,383c.2-.12.22-.3,0-.4l-4.59-2.65A.74.74,0,0,0,249.73,379.92Zm8.88,8.11a.76.76,0,0,0,.7,0l4.79-2.77c.2-.12.22-.3,0-.4l-4.59-2.65a.77.77,0,0,0-.69,0l-4.8,2.76c-.2.12-.22.3,0,.4Zm19.33,4.35,4.79-2.77c.21-.12.23-.3,0-.4l-4.58-2.65a.79.79,0,0,0-.7,0l-4.79,2.76c-.2.12-.22.3,0,.41l4.58,2.64A.76.76,0,0,0,277.94,392.38Zm-7.7,4.07a.8.8,0,0,0,.69,0l4.8-2.77c.2-.12.22-.3,0-.4l-4.59-2.65a.74.74,0,0,0-.69,0l-4.8,2.77c-.2.12-.22.3,0,.4Zm-13.51-20.57-4.79,2.77c-.21.11-.22.29,0,.4l4.58,2.65a.79.79,0,0,0,.7,0L262,378.9c.21-.11.22-.29,0-.4l-4.58-2.65A.79.79,0,0,0,256.73,375.88Zm35-20.23L287,358.42c-.21.12-.22.3,0,.4l4.58,2.65a.82.82,0,0,0,.7,0l4.79-2.77c.21-.12.22-.3,0-.4l-4.58-2.65A.79.79,0,0,0,291.76,355.65Zm-28,16.18-4.8,2.77c-.2.12-.22.3,0,.4l4.59,2.65a.82.82,0,0,0,.7,0l4.79-2.77c.2-.12.22-.3,0-.4l-4.59-2.65A.76.76,0,0,0,263.74,371.83Zm35-20.22-4.8,2.77c-.2.11-.22.29,0,.4l4.59,2.65a.79.79,0,0,0,.7,0l4.79-2.77c.2-.11.22-.29,0-.4l-4.59-2.65A.77.77,0,0,0,298.77,351.61Zm-14,8.09-4.8,2.77c-.2.11-.22.29,0,.4l4.59,2.65a.77.77,0,0,0,.69,0l4.8-2.77c.2-.11.22-.29,0-.4l-4.59-2.65A.77.77,0,0,0,284.76,359.7Zm-7,4L273,366.51c-.21.12-.23.3,0,.4l4.59,2.65a.82.82,0,0,0,.7,0l4.79-2.77c.2-.12.22-.3,0-.4l-4.58-2.65A.79.79,0,0,0,277.75,363.74Zm-7,4.05L266,370.56c-.2.11-.22.29,0,.4l4.58,2.65a.79.79,0,0,0,.7,0l4.79-2.77c.21-.11.23-.29,0-.4l-4.59-2.65A.79.79,0,0,0,270.74,367.79Zm32,2.71,4.79-2.77c.21-.11.23-.29.05-.4L303,364.68a.79.79,0,0,0-.7,0l-4.79,2.77c-.2.11-.22.29,0,.4l4.58,2.65A.79.79,0,0,0,302.73,370.5Zm65.36-58.92-4.79,2.77c-.21.12-.23.3,0,.4l4.58,2.65a.76.76,0,0,0,.7,0l4.79-2.77c.21-.12.22-.3,0-.4l-4.58-2.65A.82.82,0,0,0,368.09,311.58Zm-8.48,4.9-4.79,2.77c-.21.12-.23.3-.05.4l4.59,2.65a.79.79,0,0,0,.7,0l4.79-2.76c.2-.12.22-.3,0-.4l-4.58-2.65A.75.75,0,0,0,359.61,316.48Zm15.49-8.94-4.8,2.77c-.2.11-.22.29,0,.4l4.59,2.65a.77.77,0,0,0,.69,0l4.8-2.76c.2-.12.22-.3,0-.41l-4.59-2.64A.74.74,0,0,0,375.1,307.54Zm-38.73,36,4.8-2.76c.2-.12.22-.3,0-.41l-4.59-2.64a.76.76,0,0,0-.7,0l-4.79,2.77c-.2.12-.22.3,0,.4l4.59,2.65A.77.77,0,0,0,336.37,343.51Zm46.43-40a.82.82,0,0,0-.7,0l-4.79,2.77c-.2.12-.22.3,0,.4l4.58,2.65a.76.76,0,0,0,.7,0l4.79-2.77c.21-.12.23-.3,0-.4Zm-73.06,63,4.79-2.77c.2-.12.22-.3,0-.4L310,360.64a.82.82,0,0,0-.7,0l-4.79,2.77c-.21.12-.23.3-.05.4l4.59,2.65A.79.79,0,0,0,309.74,366.46Zm85.91-49.61,4.8-2.76c.2-.12.22-.3,0-.41L395.9,311a.76.76,0,0,0-.7,0l-4.79,2.77c-.2.11-.22.3,0,.4l4.59,2.65A.77.77,0,0,0,395.65,316.85Zm-13.55.27,4.79-2.77c.2-.12.22-.3,0-.4l-4.59-2.65a.74.74,0,0,0-.69,0l-4.8,2.77c-.2.12-.22.3,0,.4l4.59,2.65A.82.82,0,0,0,382.1,317.12Zm7.25-9.87a.79.79,0,0,0-.7,0l-4.79,2.77c-.2.11-.22.29,0,.4l4.59,2.64a.74.74,0,0,0,.69,0l4.79-2.77c.21-.11.23-.29.05-.4Zm1.48-.85L402,312.83a.76.76,0,0,0,.7,0l4.79-2.77c.21-.12.22-.3,0-.4l-11.13-6.43a.76.76,0,0,0-.7,0L390.87,306C390.66,306.12,390.64,306.3,390.83,306.4Zm-16.19,9-4.79,2.76c-.21.12-.22.3,0,.41l4.58,2.64a.76.76,0,0,0,.7,0l4.79-2.77c.21-.11.23-.29,0-.4l-4.58-2.65A.79.79,0,0,0,374.64,315.37Zm-52.73,30.44-4.79,2.77c-.21.12-.22.3,0,.4l4.58,2.65a.79.79,0,0,0,.7,0l4.79-2.76c.21-.12.23-.3,0-.41l-4.58-2.64A.76.76,0,0,0,321.91,345.81Zm66-24.89a.76.76,0,0,0,.7,0l4.79-2.77c.2-.12.22-.3,0-.4l-4.58-2.65a.82.82,0,0,0-.7,0l-4.79,2.77c-.21.12-.23.3-.05.4Zm-59,20.85-4.8,2.76c-.2.12-.22.3,0,.41l4.59,2.64a.76.76,0,0,0,.7,0l4.79-2.77c.2-.12.22-.3,0-.4l-4.59-2.65A.77.77,0,0,0,328.92,341.77ZM274,386.71a.79.79,0,0,0,.7,0l4.79-2.77c.2-.11.22-.29,0-.4L275,380.86a.79.79,0,0,0-.7,0l-4.79,2.77c-.21.11-.23.29-.05.4Zm-8.15-8.54-4.79,2.77c-.2.12-.22.3,0,.4l4.59,2.65a.77.77,0,0,0,.69,0l4.8-2.76c.2-.12.22-.3,0-.41l-4.59-2.64A.76.76,0,0,0,265.86,378.17Zm15.85,4.47,4.8-2.77c.2-.12.22-.3,0-.4L282,376.82a.82.82,0,0,0-.7,0l-4.79,2.77c-.2.12-.22.3,0,.4l4.59,2.65A.8.8,0,0,0,281.71,382.64Zm7-4.05,4.79-2.77c.21-.11.22-.29,0-.4L289,372.77a.79.79,0,0,0-.7,0l-4.79,2.77c-.21.11-.22.29,0,.4l4.58,2.65A.79.79,0,0,0,288.72,378.59Zm7-4,4.8-2.77c.2-.12.22-.3,0-.4L296,368.73a.8.8,0,0,0-.69,0l-4.8,2.77c-.2.12-.22.3,0,.4l4.59,2.65A.76.76,0,0,0,295.72,374.55Zm-22.85-.42-4.79,2.76c-.21.12-.23.3,0,.4l4.58,2.65a.76.76,0,0,0,.7,0l4.79-2.77c.21-.12.22-.3,0-.4l-4.58-2.65A.79.79,0,0,0,272.87,374.13Zm7-4.05-4.8,2.77c-.2.12-.22.3,0,.4l4.59,2.65a.77.77,0,0,0,.69,0l4.8-2.76c.2-.12.22-.3,0-.41l-4.59-2.64A.74.74,0,0,0,279.88,370.08Zm28-16.18-4.79,2.77c-.21.12-.23.3,0,.4l4.58,2.65a.79.79,0,0,0,.7,0l4.79-2.76c.2-.12.22-.3,0-.41l-4.58-2.64A.76.76,0,0,0,307.9,353.9Zm-7,4.05-4.79,2.76c-.2.12-.22.3,0,.4l4.59,2.65a.74.74,0,0,0,.69,0l4.8-2.77c.2-.12.22-.3,0-.4l-4.59-2.65A.79.79,0,0,0,300.89,358Zm14-8.09-4.8,2.76c-.2.12-.22.3,0,.4l4.59,2.65a.74.74,0,0,0,.69,0l4.8-2.77c.2-.12.22-.3,0-.4l-4.59-2.65A.77.77,0,0,0,314.91,349.86Zm-28,16.17-4.79,2.77c-.2.12-.22.3,0,.4l4.58,2.65a.76.76,0,0,0,.7,0l4.79-2.77c.21-.12.23-.3,0-.4L287.58,366A.82.82,0,0,0,286.88,366Zm7-4-4.8,2.77c-.2.12-.22.3,0,.4l4.59,2.65a.79.79,0,0,0,.7,0l4.79-2.76c.2-.12.22-.3,0-.41L294.58,362A.74.74,0,0,0,293.89,362ZM285,388.34l4.79-2.77c.2-.12.22-.3,0-.4l-4.59-2.65a.74.74,0,0,0-.69,0l-4.8,2.77c-.2.12-.22.3,0,.4l4.59,2.65A.82.82,0,0,0,285,388.34ZM248,386.59l-4.58-2.65a.79.79,0,0,0-.7,0l-4.79,2.77c-.21.11-.23.29-.05.4l4.59,2.65a.79.79,0,0,0,.7,0L248,387C248.16,386.88,248.18,386.7,248,386.59Zm9.13,2.29-4.58-2.64a.76.76,0,0,0-.7,0l-7.37,4.26c-.21.12-.22.3,0,.4l4.58,2.65a.79.79,0,0,0,.7,0l7.37-4.25C257.3,389.17,257.32,389,257.13,388.88Zm-16-7.52-4.59-2.65a.79.79,0,0,0-.7,0l-5.9,3.4c-.2.12-.22.3,0,.41l4.59,2.64a.76.76,0,0,0,.7,0l5.9-3.41C241.32,381.65,241.34,381.47,241.16,381.36Zm4.52-2.61a.79.79,0,0,0,.7,0l4.79-2.77c.2-.12.22-.3,0-.4l-4.59-2.65a.8.8,0,0,0-.69,0l-4.79,2.77c-.21.12-.23.3,0,.4Zm19.85,12.85L260.94,389a.77.77,0,0,0-.69,0L251,394.3c-.21.12-.22.3,0,.4l4.58,2.65a.82.82,0,0,0,.7,0l9.22-5.33C265.69,391.89,265.71,391.71,265.53,391.6Zm3.23,5.7-4.58-2.65a.79.79,0,0,0-.7,0l-5.9,3.4c-.2.12-.22.3,0,.4l4.58,2.65a.75.75,0,0,0,.7,0l5.9-3.41C268.92,397.58,268.94,397.4,268.76,397.3Zm29-48.62a.79.79,0,0,0,.7,0l4.79-2.76c.2-.12.22-.3,0-.41l-4.58-2.64a.75.75,0,0,0-.7,0l-4.79,2.77c-.21.11-.23.29-.05.4Zm-14,8.09a.77.77,0,0,0,.69,0l4.8-2.77c.2-.11.22-.29,0-.4l-4.59-2.64a.74.74,0,0,0-.69,0l-4.8,2.77c-.2.11-.22.29,0,.4Zm-31.07,17.94a.77.77,0,0,0,.69,0l4.8-2.77c.2-.11.22-.29,0-.4l-4.59-2.65a.79.79,0,0,0-.7,0l-4.79,2.77c-.2.11-.22.29,0,.4Zm38.07-22a.75.75,0,0,0,.7,0l4.79-2.77c.21-.12.23-.3.05-.4l-4.59-2.65a.82.82,0,0,0-.7,0l-4.79,2.77c-.2.12-.22.3,0,.4Zm-14,8.09a.76.76,0,0,0,.7,0l4.79-2.77c.21-.12.22-.3,0-.4L277.7,355a.82.82,0,0,0-.7,0l-4.79,2.77c-.21.12-.22.3,0,.4Zm-4.55,36.77a.77.77,0,0,0-.69,0l-7.38,4.26c-.2.11-.22.29,0,.4l4.59,2.64a.74.74,0,0,0,.69,0l7.38-4.26c.2-.11.22-.29,0-.4Zm-5.5-31a.77.77,0,0,0,.69,0l4.8-2.77c.2-.11.22-.29,0-.4l-4.59-2.65a.77.77,0,0,0-.69,0l-4.8,2.77c-.2.11-.22.29,0,.4Zm-7,4a.76.76,0,0,0,.7,0l4.79-2.77c.21-.12.22-.3,0-.4l-4.58-2.65a.82.82,0,0,0-.7,0l-4.79,2.77c-.21.12-.23.3,0,.4Zm142.31-48a.76.76,0,0,0-.7,0l-11.8,6.81c-.2.12-.22.3,0,.4l4.59,2.65a.74.74,0,0,0,.69,0l11.8-6.81c.21-.12.23-.3,0-.41Zm-15.49,8.94a.74.74,0,0,0-.69,0l-4.8,2.77c-.2.12-.22.3,0,.4l4.59,2.65a.77.77,0,0,0,.69,0l4.8-2.76c.2-.12.22-.3,0-.41ZM292,384.29l4.8-2.77c.2-.12.22-.29,0-.4l-4.59-2.65a.79.79,0,0,0-.7,0l-4.79,2.76c-.2.12-.22.3,0,.41l4.59,2.64A.74.74,0,0,0,292,384.29Zm80.55-44.61a.76.76,0,0,0-.7,0L367,342.47c-.2.12-.22.3,0,.4l4.58,2.65a.79.79,0,0,0,.7,0l4.79-2.76c.21-.12.23-.3,0-.4ZM409,318.6a.8.8,0,0,0-.69,0l-4.8,2.77c-.2.12-.22.3,0,.4l4.59,2.65a.76.76,0,0,0,.7,0l4.79-2.77c.2-.12.22-.3,0-.4Zm11.6-1.4-11.14-6.43a.79.79,0,0,0-.7,0L404,313.57c-.2.11-.22.29,0,.4l11.14,6.43a.77.77,0,0,0,.69,0l4.8-2.76C420.76,317.49,420.78,317.31,420.6,317.2Zm-74.28,37.59a.79.79,0,0,0-.7,0l-5.9,3.4c-.2.12-.22.3,0,.4l4.59,2.65a.74.74,0,0,0,.69,0l5.9-3.41c.21-.12.23-.3,0-.4ZM364,344.57a.79.79,0,0,0-.7,0L356,348.86c-.21.11-.22.29,0,.4l4.58,2.65a.79.79,0,0,0,.7,0l7.37-4.26c.21-.11.23-.29,0-.4Zm-33.93,19.59a.8.8,0,0,0-.69,0L289.94,387c-.2.12-.22.3,0,.4l4.59,2.65a.74.74,0,0,0,.69,0l39.46-22.78c.2-.12.22-.3,0-.4Zm-41.66,24.06a.76.76,0,0,0-.7,0l-5.9,3.41c-.2.11-.22.29,0,.4l4.59,2.65a.77.77,0,0,0,.69,0l5.9-3.4c.21-.12.22-.3,0-.41Zm49.78-28.74a.76.76,0,0,0-.7,0l-5.9,3.41c-.2.11-.22.29,0,.4l4.59,2.65a.77.77,0,0,0,.69,0l5.9-3.4c.21-.12.22-.3,0-.41Zm-57.9,33.42a.8.8,0,0,0-.69,0l-5.9,3.41c-.21.12-.22.3,0,.4l4.58,2.65a.82.82,0,0,0,.7,0l5.9-3.41c.2-.12.22-.3,0-.4Zm74.12-42.79a.76.76,0,0,0-.7,0l-5.9,3.41c-.2.12-.22.3,0,.4l4.59,2.65a.79.79,0,0,0,.7,0l5.9-3.4c.2-.12.22-.3,0-.4Zm25.08-14.48a.79.79,0,0,0-.7,0L374,338.42c-.21.12-.23.3,0,.41l4.59,2.64a.76.76,0,0,0,.7,0l4.79-2.77c.2-.12.22-.3,0-.4Zm15.69-10.95,4.79-2.77c.21-.11.22-.29,0-.4l-4.58-2.65a.79.79,0,0,0-.7,0L390,321.65c-.21.12-.23.3,0,.41l4.58,2.64A.76.76,0,0,0,395.2,324.68Zm-28.59,1.38,4.79-2.77c.21-.12.22-.3,0-.4l-4.58-2.65a.82.82,0,0,0-.7,0L361.37,323c-.21.12-.22.3,0,.4l4.58,2.65A.79.79,0,0,0,366.61,326.06ZM348,351.93l14-8.09c.21-.12.22-.3,0-.4l-4.58-2.65a.79.79,0,0,0-.7,0l-14,8.08c-.21.12-.22.3,0,.41L347.3,352A.76.76,0,0,0,348,351.93Zm39.5-23.18a.8.8,0,0,0,.69,0L393,326c.2-.12.22-.3,0-.4l-4.59-2.65a.76.76,0,0,0-.7,0L383,325.7c-.2.12-.22.3,0,.4Zm-5.86-3.81,4.79-2.76c.21-.12.23-.3.05-.41l-4.59-2.64a.76.76,0,0,0-.7,0l-4.79,2.77c-.2.11-.22.29,0,.4l4.58,2.65A.79.79,0,0,0,381.64,324.94ZM341,356l4.8-2.77c.2-.12.22-.3,0-.4l-4.59-2.65a.74.74,0,0,0-.69,0l-4.8,2.77c-.2.12-.22.3,0,.4L340.3,356A.8.8,0,0,0,341,356Zm31-18.29a.79.79,0,0,0,.7,0l4.79-2.77c.2-.12.22-.3,0-.4L373,331.85a.8.8,0,0,0-.69,0l-4.8,2.77c-.2.12-.22.3,0,.4ZM306,376.2l4.8-2.77c.2-.11.22-.29,0-.4l-4.59-2.65a.77.77,0,0,0-.69,0l-4.8,2.76c-.2.12-.22.3,0,.41l4.59,2.64A.74.74,0,0,0,306,376.2Zm7-4,4.79-2.77c.21-.12.23-.3,0-.4l-4.58-2.65a.76.76,0,0,0-.7,0l-4.79,2.77c-.2.12-.22.3,0,.4l4.58,2.65A.82.82,0,0,0,313,372.16Zm-14,8.08,4.79-2.76c.2-.12.22-.3,0-.4l-4.58-2.65a.76.76,0,0,0-.7,0l-4.79,2.77c-.21.12-.23.3,0,.4l4.58,2.65A.79.79,0,0,0,299,380.24Zm28-16.17,4.8-2.77c.2-.12.22-.3,0-.4l-4.59-2.65a.76.76,0,0,0-.7,0L321.74,361c-.2.12-.22.3,0,.4l4.59,2.65A.8.8,0,0,0,327,364.07Zm-7,4,4.79-2.77c.2-.11.22-.29,0-.4l-4.59-2.65a.77.77,0,0,0-.69,0l-4.8,2.76c-.2.12-.22.3,0,.41l4.59,2.64A.76.76,0,0,0,320,368.11ZM334,360l4.79-2.77c.2-.11.22-.29,0-.4l-4.58-2.65a.79.79,0,0,0-.7,0L328.75,357c-.21.12-.23.3,0,.41l4.58,2.64A.76.76,0,0,0,334,360Zm38.23-56.27a.82.82,0,0,0,.7,0l4.79-2.77c.2-.12.22-.3,0-.4l-1.22-.71a.79.79,0,0,0-.7,0L371,302.64c-.2.12-.22.3,0,.41ZM337.4,325.8a.77.77,0,0,0,.69,0l4.8-2.76c.2-.12.22-.3,0-.41L338.34,320a.74.74,0,0,0-.69,0l-4.8,2.77c-.2.12-.22.3,0,.4Zm14-8.09a.79.79,0,0,0,.7,0l4.79-2.76c.2-.12.22-.3,0-.41l-4.59-2.64a.74.74,0,0,0-.69,0l-4.8,2.77c-.2.12-.22.3,0,.4Zm-22.57,13a.79.79,0,0,0,.7,0l4.79-2.76c.21-.12.22-.3,0-.41l-4.58-2.64a.76.76,0,0,0-.7,0l-4.79,2.77c-.21.11-.22.29,0,.4Zm15.56-9a.76.76,0,0,0,.7,0l4.79-2.77c.21-.12.23-.3,0-.4l-4.58-2.65a.79.79,0,0,0-.7,0l-4.79,2.76c-.21.12-.22.3,0,.41Zm-29.57,17.08a.79.79,0,0,0,.7,0l4.79-2.76c.2-.12.22-.3,0-.41L315.78,333a.75.75,0,0,0-.7,0l-4.79,2.77c-.21.11-.23.29-.05.4Zm7-4.05a.74.74,0,0,0,.69,0l4.8-2.77c.2-.12.22-.3,0-.4l-4.59-2.65a.8.8,0,0,0-.69,0l-4.8,2.77c-.2.12-.22.3,0,.4Zm36.37-22.94a.8.8,0,0,0,.69,0l4.8-2.77c.2-.12.22-.3,0-.4l-1.22-.71a.79.79,0,0,0-.7,0L357,310.73c-.21.12-.22.3,0,.4Zm21-12.13a.77.77,0,0,0,.69,0l4.8-2.77c.2-.11.22-.29,0-.4l-1.22-.7a.75.75,0,0,0-.7,0l-4.79,2.77c-.21.12-.23.3,0,.4Zm9.63,5.56a.79.79,0,0,0,.7,0l4.79-2.76c.2-.12.22-.3,0-.41l-4.59-2.64a.74.74,0,0,0-.69,0l-4.8,2.77c-.2.12-.22.3,0,.4Zm13.34,15.37,4.8-2.77c.2-.12.22-.3,0-.4l-4.59-2.65a.76.76,0,0,0-.69,0l-4.8,2.77c-.2.12-.22.3,0,.4l4.59,2.65A.8.8,0,0,0,402.2,320.64Zm-37-12.85a.76.76,0,0,0,.7,0L370.7,305c.21-.11.23-.29,0-.4l-1.22-.7a.74.74,0,0,0-.69,0l-4.8,2.77c-.2.12-.22.3,0,.4Zm-57.39,35.08a.75.75,0,0,0,.7,0l4.79-2.77c.21-.12.23-.3.05-.4L308.77,337a.82.82,0,0,0-.7,0l-4.79,2.77c-.2.12-.22.3,0,.4Z" style="fill:#455a64"></path><polygon points="327.89 382.74 328.93 383.34 356.62 399.32 405.85 370.9 406.88 370.31 378.15 353.73 327.89 382.74" style="fill:#263238"></polygon><polygon points="405.22 371.26 378.15 355.64 329.56 383.71 356.62 399.32 405.22 371.26" style="fill:#37474f"></polygon></g></g><g id="freepik--window-2--inject-47"><g id="freepik--Window--inject-47"><g id="freepik--window--inject-47"><path d="M374.4,156.19a1.25,1.25,0,0,0,0-.29.07.07,0,0,0,0-.06,1.15,1.15,0,0,0-.07-.28,1.59,1.59,0,0,0-.18-.4A.42.42,0,0,0,374,155a.48.48,0,0,0-.09-.11,1,1,0,0,0-.2-.21l0,0a1.43,1.43,0,0,0-.27-.15,2.25,2.25,0,0,0-2.1.26L214.39,245.06c-1.72,1-3.12,3.41-3.12,6.89v116.6a2.11,2.11,0,0,0,1.12,1.88l.14.09.16.09a1.07,1.07,0,0,0,.27.09,1.75,1.75,0,0,0,.4.05,2,2,0,0,0,1-.29l.08,0h0l3-1.72L371.3,280.12a6.9,6.9,0,0,0,3.13-5.4V156.58A2.38,2.38,0,0,0,374.4,156.19Z" style="fill:#455a64"></path><path d="M373.4,154.51a2.25,2.25,0,0,0-2.1.26L214.39,245.06a6.89,6.89,0,0,0-3.12,5.4v6l-4-2.34v-6a6.86,6.86,0,0,1,3.11-5.39l156.92-90.29a2.16,2.16,0,0,1,2.26-.18C370.15,152.68,372.74,154.16,373.4,154.51Z" style="fill:#A46FF2"></path><path d="M374.42,156.55c0-2-1.4-2.76-3.12-1.77L214.39,245.06a6.89,6.89,0,0,0-3.12,5.4v6l163.15-93.87Z" style="fill:#A46FF2"></path><g style="opacity:0.2"><path d="M371.3,154.78,214.39,245.06a6.42,6.42,0,0,0-2.19,2.31l-4-2.29a6.28,6.28,0,0,1,2.17-2.28l156.92-90.28a2.18,2.18,0,0,1,2.27-.18c.55.34,3.14,1.81,3.8,2.16A2.28,2.28,0,0,0,371.3,154.78Z" style="fill:#fff"></path></g><path d="M207.28,254.19v-6a6.42,6.42,0,0,1,.95-3.12l4,2.29a6.25,6.25,0,0,0-.93,3.09v6Z" style="opacity:0.15"></path><path d="M362.13,163a3.14,3.14,0,0,0-1.18,2.51c0,1,.53,1.51,1.18,1.14a3.15,3.15,0,0,0,1.18-2.51C363.31,163.09,362.78,162.58,362.13,163Z" style="fill:#37474f"></path><path d="M366.4,160.49a3.12,3.12,0,0,0-1.19,2.51c0,1,.53,1.52,1.19,1.14a3.14,3.14,0,0,0,1.18-2.51C367.58,160.62,367.05,160.11,366.4,160.49Z" style="fill:#37474f"></path><path d="M370.66,158a3.14,3.14,0,0,0-1.18,2.51c0,1,.53,1.52,1.18,1.14a3.14,3.14,0,0,0,1.18-2.51C371.84,158.16,371.31,157.65,370.66,158Z" style="fill:#37474f"></path><path d="M212.39,370.44l-.16-.09-3.29-1.9a3.32,3.32,0,0,1-1.63-2.42,3.4,3.4,0,0,1,0-.45V254.18l4,2.33v112a2,2,0,0,0,1,1.77l.1.07s0,0,0,0Z" style="fill:#263238"></path></g><g id="freepik--Code--inject-47" style="opacity:0.5"><g style="opacity:0.6000000000000001"><path d="M220.11,320.72l4.25-2.45c.43-.25.78,0,.78.44v1.57a1.69,1.69,0,0,1-.78,1.33l-4.24,2.45c-.43.25-.78.05-.78-.44v-1.56A1.74,1.74,0,0,1,220.11,320.72Z" style="fill:#fff"></path><path d="M220.11,326.94l4.25-2.46c.43-.24.78,0,.78.45v1.56a1.72,1.72,0,0,1-.78,1.34l-4.24,2.45c-.43.25-.78.05-.78-.45v-1.56A1.7,1.7,0,0,1,220.11,326.94Z" style="fill:#fff"></path><path d="M220.11,333.15l4.25-2.45c.43-.25.78-.05.78.44v1.56a1.69,1.69,0,0,1-.78,1.34l-4.24,2.45c-.43.25-.78.05-.78-.44v-1.56A1.74,1.74,0,0,1,220.11,333.15Z" style="fill:#fff"></path><path d="M220.11,339.37l4.25-2.46c.43-.24.78,0,.78.45v1.56a1.72,1.72,0,0,1-.78,1.34l-4.24,2.45c-.43.24-.78.05-.78-.45V340.7A1.7,1.7,0,0,1,220.11,339.37Z" style="fill:#fff"></path></g><g style="opacity:0.6000000000000001"><path d="M220.11,289.89l4.25-2.45c.43-.25.78-.05.78.45v1.56a1.69,1.69,0,0,1-.78,1.33l-4.24,2.46c-.43.24-.78,0-.78-.45v-1.56A1.74,1.74,0,0,1,220.11,289.89Z" style="fill:#fff"></path><path d="M220.11,296.11l4.25-2.46c.43-.24.78,0,.78.45v1.56a1.72,1.72,0,0,1-.78,1.34l-4.24,2.45c-.43.25-.78.05-.78-.44v-1.57A1.7,1.7,0,0,1,220.11,296.11Z" style="fill:#fff"></path><path d="M220.11,302.32l4.25-2.45c.43-.25.78-.05.78.44v1.57a1.69,1.69,0,0,1-.78,1.33l-4.24,2.46c-.43.24-.78,0-.78-.45v-1.56A1.74,1.74,0,0,1,220.11,302.32Z" style="fill:#fff"></path><path d="M220.11,308.54l4.25-2.46c.43-.24.78,0,.78.45v1.56a1.72,1.72,0,0,1-.78,1.34l-4.24,2.45c-.43.25-.78.05-.78-.44v-1.57A1.7,1.7,0,0,1,220.11,308.54Z" style="fill:#fff"></path><path d="M220.11,351.55l4.25-2.45c.43-.25.78-.05.78.44v1.56a1.7,1.7,0,0,1-.78,1.34l-4.24,2.45c-.43.25-.78.05-.78-.44v-1.56A1.72,1.72,0,0,1,220.11,351.55Z" style="fill:#fff"></path><path d="M220.11,357.76l4.25-2.45c.43-.24.78-.05.78.45v1.56a1.72,1.72,0,0,1-.78,1.34l-4.24,2.45c-.43.24-.78,0-.78-.45V359.1A1.74,1.74,0,0,1,220.11,357.76Z" style="fill:#fff"></path></g><g style="opacity:0.6000000000000001"><path d="M220.11,259.06l4.25-2.45c.43-.24.78-.05.78.45v1.56a1.72,1.72,0,0,1-.78,1.34l-4.24,2.45c-.43.24-.78,0-.78-.45V260.4A1.74,1.74,0,0,1,220.11,259.06Z" style="fill:#fff"></path><path d="M220.11,265.28l4.25-2.45c.43-.25.78-.05.78.44v1.56a1.7,1.7,0,0,1-.78,1.34l-4.24,2.45c-.43.25-.78.05-.78-.44v-1.56A1.72,1.72,0,0,1,220.11,265.28Z" style="fill:#fff"></path><path d="M220.11,271.49l4.25-2.45c.43-.25.78-.05.78.45v1.56a1.72,1.72,0,0,1-.78,1.34l-4.24,2.45c-.43.24-.78,0-.78-.45v-1.56A1.74,1.74,0,0,1,220.11,271.49Z" style="fill:#fff"></path><path d="M220.11,277.71l4.25-2.45c.43-.25.78-.05.78.44v1.56a1.7,1.7,0,0,1-.78,1.34l-4.24,2.45c-.43.25-.78.05-.78-.44v-1.56A1.71,1.71,0,0,1,220.11,277.71Z" style="fill:#fff"></path></g><path d="M365.17,221.2,332.57,240a4.84,4.84,0,0,0-2.19,3.79V292.9c0,1.39,1,2,2.19,1.26l32.6-18.82a4.83,4.83,0,0,0,2.19-3.79V222.46C367.36,221.07,366.38,220.5,365.17,221.2Z" style="fill:#37474f"></path><path d="M362.14,258.5l-3,1.74a2.37,2.37,0,0,0-1.11,1.84c0,.66.5.91,1.11.56l3-1.74a2.37,2.37,0,0,0,1.11-1.84C363.25,258.4,362.75,258.15,362.14,258.5Z" style="fill:#A46FF2"></path><path d="M362.14,258.5l-3,1.74a2.37,2.37,0,0,0-1.11,1.84c0,.66.5.91,1.11.56l3-1.74a2.37,2.37,0,0,0,1.11-1.84C363.25,258.4,362.75,258.15,362.14,258.5Z" style="fill:#fff;opacity:0.6000000000000001"></path><path d="M362.14,227.68l-3,1.74a2.38,2.38,0,0,0-1.11,1.84c0,.66.5.91,1.11.56l3-1.74a2.37,2.37,0,0,0,1.11-1.84C363.25,227.58,362.75,227.33,362.14,227.68Z" style="fill:#A46FF2"></path><path d="M362.14,227.68l-3,1.74a2.38,2.38,0,0,0-1.11,1.84c0,.66.5.91,1.11.56l3-1.74a2.37,2.37,0,0,0,1.11-1.84C363.25,227.58,362.75,227.33,362.14,227.68Z" style="fill:#fff;opacity:0.6000000000000001"></path><path d="M357.92,236.27l-3,1.73a2.39,2.39,0,0,0-1.1,1.84c0,.67.49.92,1.1.56l3-1.73a2.36,2.36,0,0,0,1.11-1.84C359,236.17,358.54,235.92,357.92,236.27Z" style="fill:#A46FF2"></path><path d="M357.92,236.27l-3,1.73a2.39,2.39,0,0,0-1.1,1.84c0,.67.49.92,1.1.56l3-1.73a2.36,2.36,0,0,0,1.11-1.84C359,236.17,358.54,235.92,357.92,236.27Z" style="fill:#fff;opacity:0.6000000000000001"></path><path d="M357.92,242.42l-3,1.73a2.39,2.39,0,0,0-1.1,1.84c0,.66.49.92,1.1.56l3-1.73A2.37,2.37,0,0,0,359,243C359,242.31,358.54,242.06,357.92,242.42Z" style="fill:#A46FF2"></path><path d="M357.92,242.42l-3,1.73a2.39,2.39,0,0,0-1.1,1.84c0,.66.49.92,1.1.56l3-1.73A2.37,2.37,0,0,0,359,243C359,242.31,358.54,242.06,357.92,242.42Z" style="fill:#fff;opacity:0.6000000000000001"></path><path d="M362.14,246.17l-3,1.74a2.37,2.37,0,0,0-1.11,1.84c0,.66.5.91,1.11.56l3-1.74a2.38,2.38,0,0,0,1.11-1.84C363.25,246.07,362.75,245.82,362.14,246.17Z" style="fill:#A46FF2"></path><path d="M362.14,246.17l-3,1.74a2.37,2.37,0,0,0-1.11,1.84c0,.66.5.91,1.11.56l3-1.74a2.38,2.38,0,0,0,1.11-1.84C363.25,246.07,362.75,245.82,362.14,246.17Z" style="fill:#fff;opacity:0.6000000000000001"></path><path d="M357.92,254.76l-3,1.74a2.36,2.36,0,0,0-1.1,1.84c0,.66.49.91,1.1.56l3-1.74a2.36,2.36,0,0,0,1.11-1.84C359,254.66,358.54,254.41,357.92,254.76Z" style="fill:#A46FF2"></path><path d="M357.92,254.76l-3,1.74a2.36,2.36,0,0,0-1.1,1.84c0,.66.49.91,1.1.56l3-1.74a2.36,2.36,0,0,0,1.11-1.84C359,254.66,358.54,254.41,357.92,254.76Z" style="fill:#fff;opacity:0.6000000000000001"></path><path d="M353.92,232.43,335.6,243a2.38,2.38,0,0,0-1.11,1.84c0,.66.5.91,1.11.56l18.32-10.58A2.36,2.36,0,0,0,355,233C355,232.33,354.54,232.08,353.92,232.43Z" style="fill:#A46FF2"></path><path d="M353.92,232.43,335.6,243a2.38,2.38,0,0,0-1.11,1.84c0,.66.5.91,1.11.56l18.32-10.58A2.36,2.36,0,0,0,355,233C355,232.33,354.54,232.08,353.92,232.43Z" style="fill:#fff;opacity:0.8"></path><path d="M353.92,263.25,335.6,273.83a2.38,2.38,0,0,0-1.11,1.84c0,.66.5.91,1.11.56l18.32-10.58a2.36,2.36,0,0,0,1.11-1.84C355,263.15,354.54,262.9,353.92,263.25Z" style="fill:#A46FF2"></path><path d="M353.92,263.25,335.6,273.83a2.38,2.38,0,0,0-1.11,1.84c0,.66.5.91,1.11.56l18.32-10.58a2.36,2.36,0,0,0,1.11-1.84C355,263.15,354.54,262.9,353.92,263.25Z" style="fill:#fff;opacity:0.8"></path><path d="M349.71,241l-14.11,8.16a2.4,2.4,0,0,0-1.11,1.84c0,.67.5.92,1.11.56l14.11-8.16a2.37,2.37,0,0,0,1.11-1.84C350.82,240.91,350.32,240.66,349.71,241Z" style="fill:#A46FF2"></path><path d="M349.71,241l-14.11,8.16a2.4,2.4,0,0,0-1.11,1.84c0,.67.5.92,1.11.56l14.11-8.16a2.37,2.37,0,0,0,1.11-1.84C350.82,240.91,350.32,240.66,349.71,241Z" style="fill:#fff;opacity:0.8"></path><path d="M349.71,247.18l-14.11,8.16a2.37,2.37,0,0,0-1.11,1.84c0,.66.5.91,1.11.56l14.11-8.16a2.4,2.4,0,0,0,1.11-1.84C350.82,247.08,350.32,246.82,349.71,247.18Z" style="fill:#A46FF2"></path><path d="M349.71,247.18l-14.11,8.16a2.37,2.37,0,0,0-1.11,1.84c0,.66.5.91,1.11.56l14.11-8.16a2.4,2.4,0,0,0,1.11-1.84C350.82,247.08,350.32,246.82,349.71,247.18Z" style="fill:#fff;opacity:0.8"></path><path d="M353.92,250.92,335.6,261.5a2.38,2.38,0,0,0-1.11,1.84c0,.66.5.91,1.11.56l18.32-10.58a2.36,2.36,0,0,0,1.11-1.84C355,250.82,354.54,250.57,353.92,250.92Z" style="fill:#A46FF2"></path><path d="M353.92,250.92,335.6,261.5a2.38,2.38,0,0,0-1.11,1.84c0,.66.5.91,1.11.56l18.32-10.58a2.36,2.36,0,0,0,1.11-1.84C355,250.82,354.54,250.57,353.92,250.92Z" style="fill:#fff;opacity:0.8"></path><path d="M349.71,259.51l-14.11,8.16a2.37,2.37,0,0,0-1.11,1.83c0,.67.5.92,1.11.57l14.11-8.16a2.4,2.4,0,0,0,1.11-1.84C350.82,259.41,350.32,259.15,349.71,259.51Z" style="fill:#A46FF2"></path><path d="M349.71,259.51l-14.11,8.16a2.37,2.37,0,0,0-1.11,1.83c0,.67.5.92,1.11.57l14.11-8.16a2.4,2.4,0,0,0,1.11-1.84C350.82,259.41,350.32,259.15,349.71,259.51Z" style="fill:#fff;opacity:0.8"></path><path d="M362.14,270.9l-3,1.73a2.4,2.4,0,0,0-1.11,1.84c0,.67.5.92,1.11.56l3-1.73a2.4,2.4,0,0,0,1.11-1.84C363.25,270.8,362.75,270.54,362.14,270.9Z" style="fill:#A46FF2"></path><path d="M362.14,270.9l-3,1.73a2.4,2.4,0,0,0-1.11,1.84c0,.67.5.92,1.11.56l3-1.73a2.4,2.4,0,0,0,1.11-1.84C363.25,270.8,362.75,270.54,362.14,270.9Z" style="fill:#fff;opacity:0.6000000000000001"></path><path d="M357.92,267.16l-3,1.73a2.37,2.37,0,0,0-1.1,1.84c0,.66.49.91,1.1.56l3-1.73a2.37,2.37,0,0,0,1.11-1.84C359,267.05,358.54,266.8,357.92,267.16Z" style="fill:#A46FF2"></path><path d="M357.92,267.16l-3,1.73a2.37,2.37,0,0,0-1.1,1.84c0,.66.49.91,1.1.56l3-1.73a2.37,2.37,0,0,0,1.11-1.84C359,267.05,358.54,266.8,357.92,267.16Z" style="fill:#fff;opacity:0.6000000000000001"></path><path d="M353.92,275.64,335.6,286.22a2.4,2.4,0,0,0-1.11,1.84c0,.67.5.92,1.11.56L353.92,278A2.34,2.34,0,0,0,355,276.2C355,275.54,354.54,275.29,353.92,275.64Z" style="fill:#A46FF2"></path><path d="M353.92,275.64,335.6,286.22a2.4,2.4,0,0,0-1.11,1.84c0,.67.5.92,1.11.56L353.92,278A2.34,2.34,0,0,0,355,276.2C355,275.54,354.54,275.29,353.92,275.64Z" style="fill:#fff;opacity:0.8"></path><path d="M349.71,271.9l-14.11,8.16a2.38,2.38,0,0,0-1.11,1.84c0,.66.5.91,1.11.56l14.11-8.16a2.37,2.37,0,0,0,1.11-1.84C350.82,271.8,350.32,271.55,349.71,271.9Z" style="fill:#A46FF2"></path><path d="M349.71,271.9l-14.11,8.16a2.38,2.38,0,0,0-1.11,1.84c0,.66.5.91,1.11.56l14.11-8.16a2.37,2.37,0,0,0,1.11-1.84C350.82,271.8,350.32,271.55,349.71,271.9Z" style="fill:#fff;opacity:0.8"></path><path d="M365.17,170.71l-32.6,18.82a4.84,4.84,0,0,0-2.19,3.79V231c0,1.4,1,2,2.19,1.27l32.6-18.82a4.85,4.85,0,0,0,2.19-3.79V172C367.36,170.58,366.38,170,365.17,170.71Z" style="fill:#37474f"></path><path d="M362.14,208l-3,1.74a2.38,2.38,0,0,0-1.11,1.84c0,.66.5.91,1.11.56l3-1.74a2.37,2.37,0,0,0,1.11-1.84C363.25,207.91,362.75,207.66,362.14,208Z" style="fill:#A46FF2"></path><path d="M362.14,208l-3,1.74a2.38,2.38,0,0,0-1.11,1.84c0,.66.5.91,1.11.56l3-1.74a2.37,2.37,0,0,0,1.11-1.84C363.25,207.91,362.75,207.66,362.14,208Z" style="fill:#fff;opacity:0.6000000000000001"></path><path d="M362.14,177.19l-3,1.74a2.38,2.38,0,0,0-1.11,1.84c0,.66.5.91,1.11.56l3-1.74a2.37,2.37,0,0,0,1.11-1.83C363.25,177.09,362.75,176.84,362.14,177.19Z" style="fill:#A46FF2"></path><path d="M362.14,177.19l-3,1.74a2.38,2.38,0,0,0-1.11,1.84c0,.66.5.91,1.11.56l3-1.74a2.37,2.37,0,0,0,1.11-1.83C363.25,177.09,362.75,176.84,362.14,177.19Z" style="fill:#fff;opacity:0.6000000000000001"></path><path d="M357.92,185.78l-3,1.73a2.39,2.39,0,0,0-1.1,1.84c0,.67.49.92,1.1.56l3-1.73a2.36,2.36,0,0,0,1.11-1.84C359,185.68,358.54,185.43,357.92,185.78Z" style="fill:#A46FF2"></path><path d="M357.92,185.78l-3,1.73a2.39,2.39,0,0,0-1.1,1.84c0,.67.49.92,1.1.56l3-1.73a2.36,2.36,0,0,0,1.11-1.84C359,185.68,358.54,185.43,357.92,185.78Z" style="fill:#fff;opacity:0.6000000000000001"></path><path d="M357.92,191.93l-3,1.73a2.39,2.39,0,0,0-1.1,1.84c0,.67.49.92,1.1.56l3-1.73a2.37,2.37,0,0,0,1.11-1.84C359,191.83,358.54,191.57,357.92,191.93Z" style="fill:#A46FF2"></path><path d="M357.92,191.93l-3,1.73a2.39,2.39,0,0,0-1.1,1.84c0,.67.49.92,1.1.56l3-1.73a2.37,2.37,0,0,0,1.11-1.84C359,191.83,358.54,191.57,357.92,191.93Z" style="fill:#fff;opacity:0.6000000000000001"></path><path d="M362.14,195.68l-3,1.74a2.37,2.37,0,0,0-1.11,1.84c0,.66.5.91,1.11.56l3-1.74a2.38,2.38,0,0,0,1.11-1.84C363.25,195.58,362.75,195.33,362.14,195.68Z" style="fill:#A46FF2"></path><path d="M362.14,195.68l-3,1.74a2.37,2.37,0,0,0-1.11,1.84c0,.66.5.91,1.11.56l3-1.74a2.38,2.38,0,0,0,1.11-1.84C363.25,195.58,362.75,195.33,362.14,195.68Z" style="fill:#fff;opacity:0.6000000000000001"></path><path d="M357.92,204.27l-3,1.74a2.36,2.36,0,0,0-1.1,1.84c0,.66.49.91,1.1.56l3-1.74a2.34,2.34,0,0,0,1.11-1.84C359,204.17,358.54,203.92,357.92,204.27Z" style="fill:#A46FF2"></path><path d="M357.92,204.27l-3,1.74a2.36,2.36,0,0,0-1.1,1.84c0,.66.49.91,1.1.56l3-1.74a2.34,2.34,0,0,0,1.11-1.84C359,204.17,358.54,203.92,357.92,204.27Z" style="fill:#fff;opacity:0.6000000000000001"></path><path d="M353.92,181.94,335.6,192.52a2.38,2.38,0,0,0-1.11,1.84c0,.66.5.91,1.11.56l18.32-10.58A2.36,2.36,0,0,0,355,182.5C355,181.84,354.54,181.59,353.92,181.94Z" style="fill:#A46FF2"></path><path d="M353.92,181.94,335.6,192.52a2.38,2.38,0,0,0-1.11,1.84c0,.66.5.91,1.11.56l18.32-10.58A2.36,2.36,0,0,0,355,182.5C355,181.84,354.54,181.59,353.92,181.94Z" style="fill:#fff;opacity:0.8"></path><path d="M353.92,212.76,335.6,223.34a2.38,2.38,0,0,0-1.11,1.84c0,.66.5.91,1.11.56l18.32-10.58a2.36,2.36,0,0,0,1.11-1.84C355,212.66,354.54,212.41,353.92,212.76Z" style="fill:#A46FF2"></path><path d="M353.92,212.76,335.6,223.34a2.38,2.38,0,0,0-1.11,1.84c0,.66.5.91,1.11.56l18.32-10.58a2.36,2.36,0,0,0,1.11-1.84C355,212.66,354.54,212.41,353.92,212.76Z" style="fill:#fff;opacity:0.8"></path><path d="M349.71,190.52l-14.11,8.16a2.4,2.4,0,0,0-1.11,1.84c0,.67.5.92,1.11.56l14.11-8.16a2.37,2.37,0,0,0,1.11-1.83C350.82,190.42,350.32,190.17,349.71,190.52Z" style="fill:#A46FF2"></path><path d="M349.71,190.52l-14.11,8.16a2.4,2.4,0,0,0-1.11,1.84c0,.67.5.92,1.11.56l14.11-8.16a2.37,2.37,0,0,0,1.11-1.83C350.82,190.42,350.32,190.17,349.71,190.52Z" style="fill:#fff;opacity:0.8"></path><path d="M349.71,196.69l-14.11,8.16a2.38,2.38,0,0,0-1.11,1.84c0,.66.5.91,1.11.56l14.11-8.16a2.38,2.38,0,0,0,1.11-1.84C350.82,196.59,350.32,196.34,349.71,196.69Z" style="fill:#A46FF2"></path><path d="M349.71,196.69l-14.11,8.16a2.38,2.38,0,0,0-1.11,1.84c0,.66.5.91,1.11.56l14.11-8.16a2.38,2.38,0,0,0,1.11-1.84C350.82,196.59,350.32,196.34,349.71,196.69Z" style="fill:#fff;opacity:0.8"></path><path d="M353.92,200.43,335.6,211a2.4,2.4,0,0,0-1.11,1.84c0,.66.5.92,1.11.56l18.32-10.58A2.34,2.34,0,0,0,355,201C355,200.33,354.54,200.08,353.92,200.43Z" style="fill:#A46FF2"></path><path d="M353.92,200.43,335.6,211a2.4,2.4,0,0,0-1.11,1.84c0,.66.5.92,1.11.56l18.32-10.58A2.34,2.34,0,0,0,355,201C355,200.33,354.54,200.08,353.92,200.43Z" style="fill:#fff;opacity:0.8"></path><path d="M349.71,209l-14.11,8.16a2.37,2.37,0,0,0-1.11,1.84c0,.66.5.91,1.11.56l14.11-8.16a2.38,2.38,0,0,0,1.11-1.84C350.82,208.92,350.32,208.67,349.71,209Z" style="fill:#A46FF2"></path><path d="M349.71,209l-14.11,8.16a2.37,2.37,0,0,0-1.11,1.84c0,.66.5.91,1.11.56l14.11-8.16a2.38,2.38,0,0,0,1.11-1.84C350.82,208.92,350.32,208.67,349.71,209Z" style="fill:#fff;opacity:0.8"></path></g><path d="M231.22,251.89l30.83-17.81c.44-.24.79-.07.79.4a1.66,1.66,0,0,1-.79,1.3l-30.83,17.8c-.43.25-.78.07-.78-.4A1.68,1.68,0,0,1,231.22,251.89Z" style="fill:#A46FF2"></path><path d="M231.19,272.33,321.94,220c.43-.25.78-.08.78.39a1.68,1.68,0,0,1-.78,1.3L231.19,274c-.43.25-.78.08-.78-.39A1.68,1.68,0,0,1,231.19,272.33Z" style="fill:#A46FF2"></path><path d="M265.08,232.34l57.34-33c.43-.25.78-.08.78.39a1.68,1.68,0,0,1-.78,1.3l-57.34,33c-.43.25-.78.07-.78-.4A1.68,1.68,0,0,1,265.08,232.34Z" style="fill:#A46FF2"></path><path d="M231.22,256.75l15.61-9c.43-.25.78-.07.78.4a1.68,1.68,0,0,1-.78,1.3l-15.61,9c-.43.25-.78.07-.78-.4A1.68,1.68,0,0,1,231.22,256.75Z" style="fill:#A46FF2"></path><path d="M231.22,256.75l15.61-9c.43-.25.78-.07.78.4a1.68,1.68,0,0,1-.78,1.3l-15.61,9c-.43.25-.78.07-.78-.4A1.68,1.68,0,0,1,231.22,256.75Z" style="fill:#fff;opacity:0.6000000000000001"></path><path d="M231.22,261.58l9.38-5.4c.43-.25.78-.07.78.4a1.68,1.68,0,0,1-.78,1.29l-9.38,5.4c-.43.25-.78.07-.78-.4A1.68,1.68,0,0,1,231.22,261.58Z" style="fill:#A46FF2"></path><path d="M231.22,261.58l9.38-5.4c.43-.25.78-.07.78.4a1.68,1.68,0,0,1-.78,1.29l-9.38,5.4c-.43.25-.78.07-.78-.4A1.68,1.68,0,0,1,231.22,261.58Z" style="fill:#fff;opacity:0.6000000000000001"></path><path d="M249.86,246l54.32-31.3c.43-.24.78-.07.78.4a1.68,1.68,0,0,1-.78,1.3l-54.32,31.29c-.43.25-.78.07-.78-.4A1.66,1.66,0,0,1,249.86,246Z" style="fill:#A46FF2"></path><path d="M249.86,246l54.32-31.3c.43-.24.78-.07.78.4a1.68,1.68,0,0,1-.78,1.3l-54.32,31.29c-.43.25-.78.07-.78-.4A1.66,1.66,0,0,1,249.86,246Z" style="fill:#fff;opacity:0.6000000000000001"></path><path d="M239.35,285.13l83.07-48c.43-.25.78-.07.78.39a1.68,1.68,0,0,1-.78,1.3l-83.07,48c-.43.25-.78.08-.78-.39A1.68,1.68,0,0,1,239.35,285.13Z" style="fill:#ffa8a7"></path><path d="M239.35,280.3l83.07-48c.43-.25.78-.07.78.4a1.68,1.68,0,0,1-.78,1.3l-83.07,48c-.43.24-.78.07-.78-.4A1.68,1.68,0,0,1,239.35,280.3Z" style="fill:#ffa8a7"></path><path d="M243.1,254.75l15.45-9c.43-.25.78-.07.78.39a1.68,1.68,0,0,1-.78,1.3l-15.45,9c-.43.25-.78.07-.78-.39A1.68,1.68,0,0,1,243.1,254.75Z" style="fill:#A46FF2"></path><path d="M243.1,254.75l15.45-9c.43-.25.78-.07.78.39a1.68,1.68,0,0,1-.78,1.3l-15.45,9c-.43.25-.78.07-.78-.39A1.68,1.68,0,0,1,243.1,254.75Z" style="fill:#fff;opacity:0.6000000000000001"></path><path d="M261.58,244,322,209.46c.44-.25.79-.08.79.39a1.66,1.66,0,0,1-.79,1.3l-60.37,34.58c-.43.25-.78.07-.78-.39A1.68,1.68,0,0,1,261.58,244Z" style="fill:#A46FF2"></path><path d="M261.58,244,322,209.46c.44-.25.79-.08.79.39a1.66,1.66,0,0,1-.79,1.3l-60.37,34.58c-.43.25-.78.07-.78-.39A1.68,1.68,0,0,1,261.58,244Z" style="fill:#fff;opacity:0.6000000000000001"></path><path d="M231.19,266.68,258.55,251c.43-.24.78-.07.78.4a1.68,1.68,0,0,1-.78,1.3l-27.36,15.7c-.43.25-.78.07-.78-.39A1.68,1.68,0,0,1,231.19,266.68Z" style="fill:#A46FF2"></path><path d="M231.19,266.68,258.55,251c.43-.24.78-.07.78.4a1.68,1.68,0,0,1-.78,1.3l-27.36,15.7c-.43.25-.78.07-.78-.39A1.68,1.68,0,0,1,231.19,266.68Z" style="fill:#fff;opacity:0.6000000000000001"></path><path d="M261.58,249.23,322,214.64c.44-.25.79-.07.79.4a1.66,1.66,0,0,1-.79,1.29l-60.37,34.59c-.43.25-.78.07-.78-.4A1.68,1.68,0,0,1,261.58,249.23Z" style="fill:#A46FF2"></path><path d="M261.58,249.23,322,214.64c.44-.25.79-.07.79.4a1.66,1.66,0,0,1-.79,1.29l-60.37,34.59c-.43.25-.78.07-.78-.4A1.68,1.68,0,0,1,261.58,249.23Z" style="fill:#fff;opacity:0.6000000000000001"></path><path d="M239.35,290l83.07-47.87c.43-.25.78-.08.78.39a1.68,1.68,0,0,1-.78,1.3l-83.07,47.88c-.43.24-.78.07-.78-.4A1.68,1.68,0,0,1,239.35,290Z" style="fill:#f28f8f"></path><path d="M239.35,294.86,322.42,247c.43-.25.78-.07.78.39a1.68,1.68,0,0,1-.78,1.3l-83.07,47.88c-.43.25-.78.07-.78-.4A1.68,1.68,0,0,1,239.35,294.86Z" style="fill:#f28f8f"></path><path d="M239.35,299.71l83.07-47.88c.43-.25.78-.07.78.39a1.68,1.68,0,0,1-.78,1.3L239.35,301.4c-.43.25-.78.07-.78-.4A1.66,1.66,0,0,1,239.35,299.71Z" style="fill:#f28f8f"></path><path d="M239.35,306.13l83.07-47.86c.43-.25.78-.08.78.39a1.68,1.68,0,0,1-.78,1.3l-83.07,47.86c-.43.25-.78.08-.78-.39A1.68,1.68,0,0,1,239.35,306.13Z" style="fill:#A46FF2"></path><path d="M231.38,310.67l3.62-2.08c.43-.24.78-.07.78.4a1.68,1.68,0,0,1-.78,1.3l-3.62,2.07c-.43.25-.78.07-.78-.39A1.68,1.68,0,0,1,231.38,310.67Z" style="fill:#A46FF2"></path><path d="M231.38,310.67l3.62-2.08c.43-.24.78-.07.78.4a1.68,1.68,0,0,1-.78,1.3l-3.62,2.07c-.43.25-.78.07-.78-.39A1.68,1.68,0,0,1,231.38,310.67Z" style="fill:#fff;opacity:0.6000000000000001"></path><path d="M231.38,284.22l3.62-2.08c.43-.25.78-.07.78.4a1.65,1.65,0,0,1-.78,1.29l-3.62,2.08c-.43.25-.78.07-.78-.39A1.68,1.68,0,0,1,231.38,284.22Z" style="fill:#A46FF2"></path><path d="M231.38,284.22l3.62-2.08c.43-.25.78-.07.78.4a1.65,1.65,0,0,1-.78,1.29l-3.62,2.08c-.43.25-.78.07-.78-.39A1.68,1.68,0,0,1,231.38,284.22Z" style="fill:#fff;opacity:0.6000000000000001"></path><path d="M231.38,294.63l3.62-2.08c.43-.25.78-.07.78.4a1.66,1.66,0,0,1-.78,1.29l-3.62,2.08c-.43.25-.78.07-.78-.39A1.68,1.68,0,0,1,231.38,294.63Z" style="fill:#A46FF2"></path><path d="M231.38,294.63l3.62-2.08c.43-.25.78-.07.78.4a1.66,1.66,0,0,1-.78,1.29l-3.62,2.08c-.43.25-.78.07-.78-.39A1.68,1.68,0,0,1,231.38,294.63Z" style="fill:#fff;opacity:0.6000000000000001"></path><path d="M231.38,299.47l3.62-2.08c.43-.24.78-.07.78.4a1.68,1.68,0,0,1-.78,1.3l-3.62,2.07c-.43.25-.78.07-.78-.39A1.68,1.68,0,0,1,231.38,299.47Z" style="fill:#A46FF2"></path><path d="M231.38,299.47l3.62-2.08c.43-.24.78-.07.78.4a1.68,1.68,0,0,1-.78,1.3l-3.62,2.07c-.43.25-.78.07-.78-.39A1.68,1.68,0,0,1,231.38,299.47Z" style="fill:#fff;opacity:0.6000000000000001"></path><path d="M231.38,304.31l3.62-2.07c.43-.25.78-.08.78.39a1.68,1.68,0,0,1-.78,1.3L231.38,306c-.43.25-.78.08-.78-.39A1.68,1.68,0,0,1,231.38,304.31Z" style="fill:#A46FF2"></path><path d="M231.38,304.31l3.62-2.07c.43-.25.78-.08.78.39a1.68,1.68,0,0,1-.78,1.3L231.38,306c-.43.25-.78.08-.78-.39A1.68,1.68,0,0,1,231.38,304.31Z" style="fill:#fff;opacity:0.6000000000000001"></path><path d="M231.38,315.05,235,313c.43-.25.78-.07.78.4a1.68,1.68,0,0,1-.78,1.29l-3.62,2.08c-.43.25-.78.07-.78-.4A1.68,1.68,0,0,1,231.38,315.05Z" style="fill:#A46FF2"></path><path d="M231.38,315.05,235,313c.43-.25.78-.07.78.4a1.68,1.68,0,0,1-.78,1.29l-3.62,2.08c-.43.25-.78.07-.78-.4A1.68,1.68,0,0,1,231.38,315.05Z" style="fill:#fff;opacity:0.6000000000000001"></path><path d="M239.35,310.54l83.07-48c.43-.25.78-.07.78.4a1.68,1.68,0,0,1-.78,1.29l-83.07,48c-.43.25-.78.07-.78-.39A1.68,1.68,0,0,1,239.35,310.54Z" style="fill:#ffa8a7"></path><path d="M239.74,342l22.31-12.87c.44-.25.79-.08.79.39a1.66,1.66,0,0,1-.79,1.3l-22.31,12.87c-.43.25-.78.07-.78-.39A1.68,1.68,0,0,1,239.74,342Z" style="fill:#A46FF2"></path><path d="M231.38,346.74l3.62-2.08c.43-.25.78-.07.78.4a1.65,1.65,0,0,1-.78,1.29l-3.62,2.08c-.43.25-.78.07-.78-.39A1.68,1.68,0,0,1,231.38,346.74Z" style="fill:#A46FF2"></path><path d="M231.38,346.74l3.62-2.08c.43-.25.78-.07.78.4a1.65,1.65,0,0,1-.78,1.29l-3.62,2.08c-.43.25-.78.07-.78-.39A1.68,1.68,0,0,1,231.38,346.74Z" style="fill:#fff;opacity:0.6000000000000001"></path><path d="M231.38,351.12,235,349c.43-.25.78-.07.78.4a1.68,1.68,0,0,1-.78,1.29l-3.62,2.08c-.43.25-.78.07-.78-.4A1.68,1.68,0,0,1,231.38,351.12Z" style="fill:#A46FF2"></path><path d="M231.38,351.12,235,349c.43-.25.78-.07.78.4a1.68,1.68,0,0,1-.78,1.29l-3.62,2.08c-.43.25-.78.07-.78-.4A1.68,1.68,0,0,1,231.38,351.12Z" style="fill:#fff;opacity:0.6000000000000001"></path><path d="M239.71,346.15l82.37-47.53c.43-.25.78-.07.78.39a1.68,1.68,0,0,1-.78,1.3l-82.37,47.53c-.43.25-.78.07-.78-.4A1.68,1.68,0,0,1,239.71,346.15Z" style="fill:#ffa8a7"></path><path d="M239.49,320.84l82.93-47.75c.43-.25.78-.07.78.39a1.68,1.68,0,0,1-.78,1.3l-82.93,47.75c-.43.25-.78.07-.78-.39A1.68,1.68,0,0,1,239.49,320.84Z" style="fill:#A46FF2"></path><path d="M231.38,325.46l3.62-2.08c.43-.25.78-.07.78.4a1.68,1.68,0,0,1-.78,1.29l-3.62,2.08c-.43.25-.78.07-.78-.4A1.68,1.68,0,0,1,231.38,325.46Z" style="fill:#A46FF2"></path><path d="M231.38,325.46l3.62-2.08c.43-.25.78-.07.78.4a1.68,1.68,0,0,1-.78,1.29l-3.62,2.08c-.43.25-.78.07-.78-.4A1.68,1.68,0,0,1,231.38,325.46Z" style="fill:#fff;opacity:0.6000000000000001"></path><path d="M239.49,325.62l82.93-47.75c.43-.25.78-.07.78.4a1.68,1.68,0,0,1-.78,1.29l-82.93,47.75c-.43.25-.78.07-.78-.39A1.68,1.68,0,0,1,239.49,325.62Z" style="fill:#A46FF2"></path><path d="M231.38,330.3l3.62-2.08c.43-.25.78-.07.78.4a1.68,1.68,0,0,1-.78,1.29L231.38,332c-.43.25-.78.07-.78-.39A1.68,1.68,0,0,1,231.38,330.3Z" style="fill:#A46FF2"></path><path d="M231.38,330.3l3.62-2.08c.43-.25.78-.07.78.4a1.68,1.68,0,0,1-.78,1.29L231.38,332c-.43.25-.78.07-.78-.39A1.68,1.68,0,0,1,231.38,330.3Z" style="fill:#fff;opacity:0.6000000000000001"></path><path d="M239.49,330.48l82.93-47.75c.43-.25.78-.07.78.4a1.68,1.68,0,0,1-.78,1.29l-82.93,47.75c-.43.25-.78.08-.78-.39A1.68,1.68,0,0,1,239.49,330.48Z" style="fill:#f28f8f"></path><path d="M231.38,335.14l3.62-2.08c.43-.25.78-.07.78.4a1.68,1.68,0,0,1-.78,1.3l-3.62,2.07c-.43.25-.78.07-.78-.39A1.68,1.68,0,0,1,231.38,335.14Z" style="fill:#A46FF2"></path><path d="M231.38,335.14l3.62-2.08c.43-.25.78-.07.78.4a1.68,1.68,0,0,1-.78,1.3l-3.62,2.07c-.43.25-.78.07-.78-.39A1.68,1.68,0,0,1,231.38,335.14Z" style="fill:#fff;opacity:0.6000000000000001"></path></g></g><g id="freepik--window-1--inject-47"><g id="freepik--window--inject-47"><g id="freepik--window--inject-47"><path d="M246,278.14a3.86,3.86,0,0,1-1.69-3.07v-9.89a4,4,0,0,1,1.81-3.12l160.14-92.49a3.38,3.38,0,0,1,5.18,3v9.89a4,4,0,0,1-1.8,3.13L249.5,278.07A3.87,3.87,0,0,1,246,278.14Z" style="fill:#A46FF2"></path><path d="M411.43,172.27c-.13-.94-.89-1.28-1.79-.75L249.5,264a3.77,3.77,0,0,0-1.27,1.35l-3.38-2a3.65,3.65,0,0,1,1.27-1.34l160.14-92.49a3.37,3.37,0,0,1,5.17,2.7Z" style="fill:#fff;opacity:0.2"></path><path d="M248.23,265.36a3.62,3.62,0,0,0-.53,1.77v5.45l-3.39-2v-5.44c0-.07,0-.14,0-.22s0-.29.07-.44a3.9,3.9,0,0,1,.46-1.12Z" style="opacity:0.15"></path><path d="M411.44,172.56V178L303.66,240.28l-51,29.44-5,2.86v-5.45a4,4,0,0,1,1.8-3.12l160.14-92.49C410.64,170.94,411.44,171.41,411.44,172.56Z" style="fill:#A46FF2"></path><path d="M406.51,176c.64-.37,1.16-.07,1.16.67a2.57,2.57,0,0,1-1.16,2c-.65.38-1.17.07-1.17-.67A2.57,2.57,0,0,1,406.51,176Z" style="fill:#fff"></path><path d="M402.31,178.4c.64-.37,1.16-.07,1.16.67a2.57,2.57,0,0,1-1.16,2c-.65.38-1.17.07-1.17-.67A2.57,2.57,0,0,1,402.31,178.4Z" style="fill:#fff"></path><path d="M398.11,180.82c.65-.37,1.17-.07,1.17.67a2.55,2.55,0,0,1-1.17,2c-.64.38-1.16.07-1.16-.67A2.59,2.59,0,0,1,398.11,180.82Z" style="fill:#fff"></path><path d="M249.5,387a3.05,3.05,0,0,1-1.41.43A3.56,3.56,0,0,1,246,387a3.85,3.85,0,0,1-1.69-3.06V270.62l3.39,2V385.92c0,.82.41,1.29,1,1.29A1.71,1.71,0,0,0,249.5,387Z" style="fill:#e0e0e0"></path><path d="M248.7,387c-.48,0-.77-.4-.77-1.06V272.71l55.84-32.24,107.45-62.08v113a3.73,3.73,0,0,1-1.69,2.93L249.39,386.77A1.32,1.32,0,0,1,248.7,387Z" style="fill:#fafafa"></path><path d="M411,178.78V291.35a3.54,3.54,0,0,1-1.58,2.74L249.28,386.58a1.23,1.23,0,0,1-.58.19c-.5,0-.55-.59-.55-.85V272.84l4.74-2.74,51-29.44L411,178.78m.44-.77L303.66,240.28l-51,29.44-5,2.86V385.92c0,.82.41,1.29,1,1.29a1.66,1.66,0,0,0,.8-.24l160.14-92.49a4,4,0,0,0,1.8-3.13V178Z" style="fill:#e0e0e0"></path></g><polygon points="405.04 214.95 254.11 302.09 254.11 277.71 405.04 190.57 405.04 214.95" style="fill:#A46FF2"></polygon><g style="opacity:0.5"><polygon points="405.04 214.95 254.11 302.09 254.11 277.71 405.04 190.57 405.04 214.95" style="fill:#fff"></polygon></g><path d="M390.05,269.87l-29.93,17.28c-.76.44-1.38,0-1.38-1V254a3.31,3.31,0,0,1,1.38-2.63L390.05,234c.77-.44,1.38,0,1.38,1.05v32.15A3.28,3.28,0,0,1,390.05,269.87Z" style="fill:#A46FF2"></path><path d="M390.05,269.87l-29.93,17.28c-.76.44-1.38,0-1.38-1V254a3.31,3.31,0,0,1,1.38-2.63L390.05,234c.77-.44,1.38,0,1.38,1.05v32.15A3.28,3.28,0,0,1,390.05,269.87Z" style="opacity:0.30000000000000004"></path><polygon points="361.06 283.04 361.06 273.13 369.43 255.78 379.08 264.17 376.8 259.6 381.92 250.69 389.12 256.66 389.12 266.84 361.06 283.04" style="fill:#A46FF2"></polygon><path d="M378.33,249.24a5,5,0,0,1-1.9,4c-1.05.61-1.9-.21-1.9-1.83a5,5,0,0,1,1.9-4C377.48,246.8,378.33,247.62,378.33,249.24Z" style="fill:#A46FF2"></path><path d="M346.36,295.1l-29.94,17.28c-.76.44-1.38,0-1.38-1.05V279.18a3.33,3.33,0,0,1,1.38-2.64l29.94-17.28c.76-.44,1.38,0,1.38,1.05v32.15A3.31,3.31,0,0,1,346.36,295.1Z" style="fill:#A46FF2"></path><g style="opacity:0.5"><polygon points="317.36 308.27 317.36 298.36 325.74 281.01 335.38 289.39 333.1 284.83 338.22 275.91 345.42 281.89 345.42 292.07 317.36 308.27" style="fill:#fff"></polygon></g><g style="opacity:0.5"><path d="M334.64,274.47a5,5,0,0,1-1.9,4c-1.05.6-1.9-.21-1.9-1.83a5,5,0,0,1,1.9-4C333.78,272,334.64,272.85,334.64,274.47Z" style="fill:#fff"></path></g><path d="M302.66,320.33l-29.93,17.28c-.76.44-1.38,0-1.38-1.05V304.41a3.31,3.31,0,0,1,1.38-2.64l29.93-17.28c.76-.44,1.38,0,1.38,1v32.16A3.34,3.34,0,0,1,302.66,320.33Z" style="fill:#A46FF2"></path><g style="opacity:0.5"><path d="M302.66,320.33l-29.93,17.28c-.76.44-1.38,0-1.38-1.05V304.41a3.31,3.31,0,0,1,1.38-2.64l29.93-17.28c.76-.44,1.38,0,1.38,1v32.16A3.34,3.34,0,0,1,302.66,320.33Z" style="fill:#fff"></path></g><g style="opacity:0.5"><polygon points="273.67 333.5 273.67 323.59 282.04 306.24 291.69 314.62 289.41 310.06 294.52 301.14 301.72 307.12 301.72 317.3 273.67 333.5" style="fill:#fff"></polygon></g><g style="opacity:0.5"><path d="M290.94,299.7a5,5,0,0,1-1.9,4c-1.05.6-1.9-.22-1.9-1.83a5,5,0,0,1,1.9-4C290.09,297.26,290.94,298.08,290.94,299.7Z" style="fill:#fff"></path></g><path d="M344,304.68l-25.3,14.6c-.55.32-1,0-1-.75v-.2a2.4,2.4,0,0,1,1-1.91L344,301.81c.55-.32,1,0,1,.76v.2A2.41,2.41,0,0,1,344,304.68Z" style="fill:#455a64"></path><path d="M300.34,329.91l-25.29,14.6c-.56.32-1,0-1-.75v-.2a2.37,2.37,0,0,1,1-1.91L300.34,327c.55-.32,1,0,1,.76v.2A2.41,2.41,0,0,1,300.34,329.91Z" style="fill:#455a64"></path><path d="M387.74,279.45l-25.3,14.6c-.55.32-1,0-1-.75v-.2a2.4,2.4,0,0,1,1-1.91l25.3-14.6c.55-.32,1,0,1,.75v.2A2.4,2.4,0,0,1,387.74,279.45Z" style="fill:#455a64"></path><path d="M315,326.24a.5.5,0,0,1-.44-.26.51.51,0,0,1,.19-.7l32.69-18.87a.51.51,0,0,1,.7.18.52.52,0,0,1-.18.71l-32.7,18.87A.48.48,0,0,1,315,326.24Z" style="fill:#e0e0e0"></path><path d="M315,330.29a.5.5,0,0,1-.44-.26.51.51,0,0,1,.19-.7l32.69-18.88a.52.52,0,0,1,.52.89l-32.7,18.88A.48.48,0,0,1,315,330.29Z" style="fill:#e0e0e0"></path><path d="M315,334.34a.52.52,0,0,1-.44-.26.51.51,0,0,1,.19-.7l32.69-18.88a.52.52,0,0,1,.52.89l-32.7,18.88A.59.59,0,0,1,315,334.34Z" style="fill:#e0e0e0"></path><path d="M315,338.38a.51.51,0,0,1-.44-.25.52.52,0,0,1,.19-.71l32.69-18.87a.51.51,0,0,1,.7.18.52.52,0,0,1-.18.71l-32.7,18.87A.48.48,0,0,1,315,338.38Z" style="fill:#e0e0e0"></path><path d="M358.74,301a.51.51,0,0,1-.26-1l32.7-18.87a.51.51,0,0,1,.51.89L359,301A.58.58,0,0,1,358.74,301Z" style="fill:#e0e0e0"></path><path d="M358.74,305.06a.51.51,0,0,1-.26-1l32.7-18.88a.52.52,0,0,1,.51.9L359,305A.48.48,0,0,1,358.74,305.06Z" style="fill:#e0e0e0"></path><path d="M358.74,309.11a.51.51,0,0,1-.26-1l32.7-18.88a.51.51,0,0,1,.51.89L359,309A.48.48,0,0,1,358.74,309.11Z" style="fill:#e0e0e0"></path><path d="M358.74,313.16a.54.54,0,0,1-.45-.26.53.53,0,0,1,.19-.71l32.7-18.87a.51.51,0,0,1,.51.89L359,313.09A.59.59,0,0,1,358.74,313.16Z" style="fill:#e0e0e0"></path><path d="M271.35,351.47a.51.51,0,0,1-.26-1l32.69-18.88a.53.53,0,0,1,.71.19.52.52,0,0,1-.19.71L271.6,351.4A.47.47,0,0,1,271.35,351.47Z" style="fill:#e0e0e0"></path><path d="M271.35,355.52a.52.52,0,0,1-.45-.26.51.51,0,0,1,.19-.7l32.69-18.88a.52.52,0,0,1,.71.19.51.51,0,0,1-.19.7l-32.7,18.88A.47.47,0,0,1,271.35,355.52Z" style="fill:#e0e0e0"></path><path d="M271.35,359.57a.54.54,0,0,1-.45-.26.52.52,0,0,1,.19-.71l32.69-18.87a.52.52,0,0,1,.71.19.51.51,0,0,1-.19.7L271.6,359.5A.59.59,0,0,1,271.35,359.57Z" style="fill:#e0e0e0"></path><path d="M271.35,363.61a.51.51,0,0,1-.26-1l32.69-18.88a.53.53,0,0,1,.71.19.52.52,0,0,1-.19.71l-32.7,18.87A.47.47,0,0,1,271.35,363.61Z" style="fill:#e0e0e0"></path><polygon points="405.04 197.93 385.31 209.32 385.31 201.96 405.04 190.57 405.04 197.93" style="fill:#A46FF2"></polygon><polygon points="384.4 209.84 364.67 221.23 364.67 213.88 384.4 202.49 384.4 209.84" style="fill:#A46FF2"></polygon><polygon points="363.75 221.76 344.03 233.15 344.03 225.8 363.75 214.41 363.75 221.76" style="fill:#A46FF2"></polygon><polygon points="273.84 273.68 254.11 285.07 254.11 277.71 273.84 266.32 273.84 273.68" style="fill:#A46FF2"></polygon></g></g></svg>