<?xml version="1.0" standalone="no"?>
<svg xmlns:xlink="http://www.w3.org/1999/xlink" id="wave" style="transform:rotate(180deg); transition: 0.3s" viewBox="0 0 1440 250" version="1.1" xmlns="http://www.w3.org/2000/svg"><defs><linearGradient id="sw-gradient-0" x1="0" x2="0" y1="1" y2="0"><stop stop-color="rgba(219, 234, 254, 1)" offset="0%"/><stop stop-color="rgba(255, 255, 255, 1)" offset="100%"/></linearGradient></defs><path style="transform:translate(0, 0px); opacity:1" fill="url(#sw-gradient-0)" d="M0,125L80,104.2C160,83,320,42,480,37.5C640,33,800,67,960,70.8C1120,75,1280,50,1440,41.7C1600,33,1760,42,1920,37.5C2080,33,2240,17,2400,33.3C2560,50,2720,100,2880,116.7C3040,133,3200,117,3360,112.5C3520,108,3680,117,3840,129.2C4000,142,4160,158,4320,141.7C4480,125,4640,75,4800,58.3C4960,42,5120,58,5280,58.3C5440,58,5600,42,5760,41.7C5920,42,6080,58,6240,75C6400,92,6560,108,6720,125C6880,142,7040,158,7200,150C7360,142,7520,108,7680,87.5C7840,67,8000,58,8160,79.2C8320,100,8480,150,8640,179.2C8800,208,8960,217,9120,183.3C9280,150,9440,75,9600,45.8C9760,17,9920,33,10080,45.8C10240,58,10400,67,10560,75C10720,83,10880,92,11040,95.8C11200,100,11360,100,11440,100L11520,100L11520,250L11440,250C11360,250,11200,250,11040,250C10880,250,10720,250,10560,250C10400,250,10240,250,10080,250C9920,250,9760,250,9600,250C9440,250,9280,250,9120,250C8960,250,8800,250,8640,250C8480,250,8320,250,8160,250C8000,250,7840,250,7680,250C7520,250,7360,250,7200,250C7040,250,6880,250,6720,250C6560,250,6400,250,6240,250C6080,250,5920,250,5760,250C5600,250,5440,250,5280,250C5120,250,4960,250,4800,250C4640,250,4480,250,4320,250C4160,250,4000,250,3840,250C3680,250,3520,250,3360,250C3200,250,3040,250,2880,250C2720,250,2560,250,2400,250C2240,250,2080,250,1920,250C1760,250,1600,250,1440,250C1280,250,1120,250,960,250C800,250,640,250,480,250C320,250,160,250,80,250L0,250Z"/></svg>