<?xml version="1.0" standalone="no"?>
<!DOCTYPE svg PUBLIC "-//W3C//DTD SVG 20010904//EN"
 "http://www.w3.org/TR/2001/REC-SVG-20010904/DTD/svg10.dtd">
<svg version="1.0" xmlns="http://www.w3.org/2000/svg"
 width="256.000000pt" height="256.000000pt" viewBox="0 0 256.000000 256.000000"
 preserveAspectRatio="xMidYMid meet">
<metadata>
Created by potrace 1.14, written by Peter Selinger 2001-2017
</metadata>
<g transform="translate(0.000000,256.000000) scale(0.100000,-0.100000)"
fill="#000000" stroke="none">
<path d="M927 2304 c-1 -2 -29 -4 -62 -5 -162 -6 -317 -79 -434 -205 -72 -77
-144 -216 -161 -313 -33 -189 11 -382 119 -518 21 -27 96 -150 166 -274 70
-123 133 -232 140 -241 10 -15 22 2 91 122 75 133 81 140 112 141 17 1 39 2
48 3 13 1 16 -13 16 -89 l0 -90 -126 -70 c-124 -69 -125 -70 -103 -87 12 -10
25 -18 28 -18 9 0 446 -246 479 -270 49 -35 171 -86 237 -100 85 -17 249 -8
333 19 122 39 234 119 314 226 61 81 101 168 120 257 13 62 14 228 1 267 -3
11 -7 28 -9 38 -17 83 -94 213 -176 293 -114 112 -272 179 -429 183 l-79 2 0
87 c-2 277 -183 525 -442 607 -61 19 -176 41 -183 35z m-357 -484 c6 -11 8
-25 5 -30 -4 -6 7 -10 24 -10 23 0 31 -5 31 -18 0 -16 -9 -18 -72 -18 -61 1
-73 4 -76 19 -3 13 3 17 27 17 31 0 43 21 20 36 -8 4 -7 9 2 15 21 13 27 11
39 -11z m228 8 c19 -19 15 -26 -18 -33 -25 -5 -30 -11 -30 -36 0 -27 2 -29 40
-29 33 0 40 -3 40 -20 0 -16 -7 -20 -32 -21 -18 -1 -36 -1 -40 0 -5 0 -8 -12
-8 -28 0 -27 2 -29 30 -25 l30 5 0 -73 c0 -67 -2 -74 -20 -75 -11 -1 -20 2
-20 7 0 4 -17 7 -37 4 -21 -2 -49 -5 -63 -6 -24 -3 -24 -1 -25 67 0 55 3 70
15 71 8 1 22 2 31 3 10 1 16 9 15 24 -1 18 -7 22 -32 23 -39 1 -55 11 -47 29
3 10 19 15 42 15 33 0 37 3 37 25 0 20 -5 26 -20 24 -37 -2 -46 1 -46 15 0 14
15 19 90 31 19 3 36 8 39 11 7 7 16 5 29 -8z m285 -7 c4 -1 7 -9 5 -18 -2 -15
5 -18 40 -20 23 0 47 -2 52 -2 6 -1 10 -10 10 -20 0 -17 -8 -20 -52 -23 -52
-3 -53 -3 -50 -33 12 -116 1 -147 -69 -188 l-36 -21 -22 21 -21 20 42 17 43
17 -31 13 c-47 21 -58 66 -26 105 9 12 27 23 39 24 12 0 25 7 27 14 4 10 -12
13 -74 10 -78 -3 -80 -3 -80 20 0 22 4 23 68 24 37 1 73 1 80 0 8 -1 13 6 12
16 -3 28 -1 31 18 28 9 -2 21 -4 25 -4z m222 -116 c0 -71 -3 -91 -15 -96 -34
-14 -40 1 -40 98 l0 94 28 -3 27 -3 0 -90z m-695 -18 l0 -43 -55 0 c-47 0 -55
3 -55 19 0 11 6 18 18 16 36 -3 82 1 82 9 0 4 -22 7 -50 6 -42 -1 -50 2 -50
18 0 15 8 18 55 18 l55 0 0 -43z m4 -109 c-1 -29 -2 -56 -3 -61 0 -4 -13 -7
-28 -6 -16 1 -40 -2 -55 -6 l-28 -7 0 66 0 66 58 0 59 0 -3 -52z m684 0 c27
-27 -5 -73 -38 -53 -20 12 -4 65 20 65 3 0 11 -5 18 -12z"/>
<path d="M686 1584 c-7 -18 20 -43 41 -39 10 2 24 4 31 4 6 1 12 11 12 24 0
19 -5 22 -40 23 -24 1 -41 -4 -44 -12z"/>
<path d="M1000 1660 c-10 -19 0 -32 27 -36 13 -2 29 34 19 44 -14 13 -37 9
-46 -8z"/>
<path d="M537 1576 c-7 -17 1 -26 24 -26 12 0 17 7 16 20 -1 23 -32 27 -40 6z"/>
</g>
</svg>
